<svg width="178" height="74" viewBox="0 0 178 74" fill="none" xmlns="http://www.w3.org/2000/svg">
<path d="M36.1 2V72H12.5V19.8H0.5V2H36.1ZM76.3969 73.6C70.1969 73.6 64.6969 72.1667 59.8969 69.3C55.1635 66.3667 51.4302 62.1667 48.6969 56.7C46.0302 51.1667 44.6969 44.6 44.6969 37C44.6969 29.4 46.0302 22.8667 48.6969 17.4C51.4302 11.8667 55.1635 7.66666 59.8969 4.79999C64.6969 1.86666 70.1969 0.399998 76.3969 0.399998C82.5969 0.399998 88.0635 1.86666 92.7969 4.79999C97.5969 7.66666 101.33 11.8667 103.997 17.4C106.73 22.8667 108.097 29.4 108.097 37C108.097 44.6 106.73 51.1667 103.997 56.7C101.33 62.1667 97.5969 66.3667 92.7969 69.3C88.0635 72.1667 82.5969 73.6 76.3969 73.6ZM76.3969 54.7C81.7302 54.7 84.3969 48.8 84.3969 37C84.3969 25.2 81.7302 19.3 76.3969 19.3C71.0635 19.3 68.3969 25.2 68.3969 37C68.3969 48.8 71.0635 54.7 76.3969 54.7ZM145.635 73.6C139.435 73.6 133.935 72.1667 129.135 69.3C124.402 66.3667 120.668 62.1667 117.935 56.7C115.268 51.1667 113.935 44.6 113.935 37C113.935 29.4 115.268 22.8667 117.935 17.4C120.668 11.8667 124.402 7.66666 129.135 4.79999C133.935 1.86666 139.435 0.399998 145.635 0.399998C151.835 0.399998 157.302 1.86666 162.035 4.79999C166.835 7.66666 170.568 11.8667 173.235 17.4C175.968 22.8667 177.335 29.4 177.335 37C177.335 44.6 175.968 51.1667 173.235 56.7C170.568 62.1667 166.835 66.3667 162.035 69.3C157.302 72.1667 151.835 73.6 145.635 73.6ZM145.635 54.7C150.968 54.7 153.635 48.8 153.635 37C153.635 25.2 150.968 19.3 145.635 19.3C140.302 19.3 137.635 25.2 137.635 37C137.635 48.8 140.302 54.7 145.635 54.7Z" fill="white"/>
</svg>
