<svg width="120" height="83" viewBox="0 0 120 83" fill="none" xmlns="http://www.w3.org/2000/svg">
<path fill-rule="evenodd" clip-rule="evenodd" d="M61.7598 15.7167L33.501 82H5.04137L31.6527 23.6016H0.539062V0.90625H61.7598V15.7167ZM39.4258 18.6016L12.8145 77H30.1973L56.7598 14.6953V5.90625H5.53906V18.6016H39.4258ZM60.7369 46.0788L66.1406 0.90625H117.131V23.6992H88.4186L88.201 25.6049C89.6523 25.3528 91.1033 25.2227 92.5508 25.2227C100.643 25.2227 107.563 27.6659 112.515 33.1633C117.407 38.5242 119.523 45.7363 119.523 54.0996C119.523 59.4344 118.315 64.408 115.828 68.9122C113.348 73.4293 109.805 76.9538 105.277 79.3979C100.737 81.8489 95.543 82.9766 89.8652 82.9766C84.7009 82.9766 79.7934 81.9158 75.202 79.7731L75.1865 79.7659L75.1711 79.7586C70.5682 77.5722 66.7948 74.5105 64.0288 70.5242L64.022 70.5145L64.0153 70.5047C61.202 66.4088 59.8249 61.7703 59.8654 56.7448L59.9054 51.7852H86.0664L86.3594 56.4733C86.4644 58.1531 86.9479 58.9937 87.4327 59.489C87.8546 59.9201 88.4649 60.2812 89.7676 60.2812C91.1031 60.2812 91.5162 59.9009 91.8482 59.4088C92.4165 58.5664 93.0684 56.6729 93.0684 52.9766C93.0684 49.8239 92.3525 48.3932 91.7993 47.7736C91.3427 47.2621 90.3707 46.5996 87.9121 46.5996C85.2245 46.5996 84.0138 47.3996 83.2931 48.3439L81.3278 50.9192L60.7369 46.0788ZM111.447 66.502C113.498 62.791 114.523 58.6569 114.523 54.0996C114.523 46.5475 112.619 40.6881 108.811 36.5215C105.035 32.3223 99.6146 30.2227 92.5508 30.2227C90.94 30.2227 89.2911 30.426 87.604 30.8327C87.3819 30.8862 87.159 30.9433 86.9355 31.0039C85.0475 31.5247 83.5176 32.127 82.3457 32.8105L83.957 18.6992H112.131V5.90625H70.5781L66.2324 42.2344L79.3184 45.3105C81.2064 42.8366 84.071 41.5996 87.9121 41.5996C94.6829 41.5996 98.0684 45.3919 98.0684 52.9766C98.0684 61.1797 95.3014 65.2812 89.7676 65.2812C87.3262 65.2812 85.3568 64.5163 83.8594 62.9863C82.362 61.4564 81.5319 59.3893 81.3691 56.7852H64.8652C64.8643 56.9022 64.8643 57.0188 64.8652 57.1351C64.8783 58.7511 65.0736 60.3011 65.4509 61.7852C65.9835 63.8795 66.8787 65.8424 68.1367 67.6738C70.3503 70.8639 73.4102 73.3867 77.3164 75.2422C81.2227 77.0651 85.4056 77.9766 89.8652 77.9766C94.8783 77.9766 99.224 76.9837 102.902 74.998C106.581 73.0124 109.429 70.1803 111.447 66.502Z" fill="url(#paint0_linear)"/>
<defs>
<linearGradient id="paint0_linear" x1="0.539063" y1="41.9414" x2="119.523" y2="41.9414" gradientUnits="userSpaceOnUse">
<stop stop-color="#E94057"/>
<stop offset="1" stop-color="#F27121"/>
</linearGradient>
</defs>
</svg>
