<svg width="390" height="383" viewBox="0 0 390 383" fill="none" xmlns="http://www.w3.org/2000/svg">
<mask id="path-1-inside-1" fill="white">
<path fill-rule="evenodd" clip-rule="evenodd" d="M209.819 103.164C238.307 103.164 261.401 80.0696 261.401 51.5818C261.401 23.0939 238.307 0 209.819 0C188.798 0 170.714 12.574 162.678 30.6108C155.118 25.1822 145.846 21.9857 135.829 21.9857C110.376 21.9857 89.7432 42.6189 89.7432 68.0711C89.7432 68.3581 89.7458 68.6446 89.7511 68.9304C70.605 71.7854 55.9191 88.2962 55.9191 108.237C55.9191 119.689 60.7624 130.009 68.5123 137.261C57.5262 142.848 49.9999 154.26 49.9999 167.429C49.9999 186.11 65.1434 201.254 83.824 201.254C102.505 201.254 117.648 186.11 117.648 167.429C117.648 159.054 114.604 151.39 109.562 145.482C122.879 140.51 132.814 128.6 134.969 114.149C135.255 114.154 135.541 114.156 135.829 114.156C153.107 114.156 168.165 104.648 176.054 90.5778C185.102 98.4188 196.906 103.164 209.819 103.164Z"/>
</mask>
<path fill-rule="evenodd" clip-rule="evenodd" d="M209.819 103.164C238.307 103.164 261.401 80.0696 261.401 51.5818C261.401 23.0939 238.307 0 209.819 0C188.798 0 170.714 12.574 162.678 30.6108C155.118 25.1822 145.846 21.9857 135.829 21.9857C110.376 21.9857 89.7432 42.6189 89.7432 68.0711C89.7432 68.3581 89.7458 68.6446 89.7511 68.9304C70.605 71.7854 55.9191 88.2962 55.9191 108.237C55.9191 119.689 60.7624 130.009 68.5123 137.261C57.5262 142.848 49.9999 154.26 49.9999 167.429C49.9999 186.11 65.1434 201.254 83.824 201.254C102.505 201.254 117.648 186.11 117.648 167.429C117.648 159.054 114.604 151.39 109.562 145.482C122.879 140.51 132.814 128.6 134.969 114.149C135.255 114.154 135.541 114.156 135.829 114.156C153.107 114.156 168.165 104.648 176.054 90.5778C185.102 98.4188 196.906 103.164 209.819 103.164Z" fill="#FF4760"/>
<path d="M162.678 30.6108L159.762 34.6723L164.748 38.2521L167.246 32.6456L162.678 30.6108ZM89.7511 68.9304L90.4885 73.8757L94.8305 73.2282L94.7502 68.839L89.7511 68.9304ZM68.5123 137.261L70.7788 141.718L77.137 138.485L71.9287 133.611L68.5123 137.261ZM109.562 145.482L107.813 140.798L101.122 143.296L105.759 148.728L109.562 145.482ZM134.969 114.149L135.06 109.149L130.671 109.069L130.024 113.411L134.969 114.149ZM176.054 90.5778L179.328 86.7992L174.693 82.7819L171.693 88.1324L176.054 90.5778ZM256.401 51.5818C256.401 77.3082 235.545 98.1635 209.819 98.1635V108.164C241.068 108.164 266.401 82.831 266.401 51.5818H256.401ZM209.819 5C235.545 5 256.401 25.8554 256.401 51.5818H266.401C266.401 20.3325 241.068 -5 209.819 -5V5ZM167.246 32.6456C174.507 16.3464 190.843 5 209.819 5V-5C186.753 -5 166.921 8.80151 158.111 28.576L167.246 32.6456ZM135.829 26.9857C144.766 26.9857 153.023 29.8337 159.762 34.6723L165.595 26.5493C157.212 20.5307 146.927 16.9857 135.829 16.9857V26.9857ZM94.7432 68.0711C94.7432 45.3803 113.138 26.9857 135.829 26.9857V16.9857C107.615 16.9857 84.7432 39.8574 84.7432 68.0711H94.7432ZM94.7502 68.839C94.7456 68.5836 94.7432 68.3277 94.7432 68.0711H84.7432C84.7432 68.3886 84.7461 68.7055 84.7519 69.0218L94.7502 68.839ZM60.9191 108.237C60.9191 90.8094 73.7556 76.3708 90.4885 73.8757L89.0136 63.9851C67.4544 67.1999 50.9191 85.783 50.9191 108.237H60.9191ZM71.9287 133.611C65.1468 127.264 60.9191 118.248 60.9191 108.237H50.9191C50.9191 121.129 56.3779 132.754 65.0958 140.912L71.9287 133.611ZM54.9999 167.429C54.9999 156.214 61.4044 146.486 70.7788 141.718L66.2457 132.805C53.6481 139.211 44.9999 152.306 44.9999 167.429H54.9999ZM83.824 196.254C67.9049 196.254 54.9999 183.349 54.9999 167.429H44.9999C44.9999 188.871 62.382 206.254 83.824 206.254V196.254ZM112.648 167.429C112.648 183.349 99.7431 196.254 83.824 196.254V206.254C105.266 206.254 122.648 188.871 122.648 167.429H112.648ZM105.759 148.728C110.058 153.765 112.648 160.288 112.648 167.429H122.648C122.648 157.82 119.15 149.014 113.365 142.236L105.759 148.728ZM130.024 113.411C128.142 126.03 119.459 136.45 107.813 140.798L111.311 150.166C126.3 144.57 137.486 131.17 139.914 114.886L130.024 113.411ZM135.829 109.156C135.572 109.156 135.316 109.154 135.06 109.149L134.878 119.148C135.194 119.154 135.511 119.156 135.829 119.156V109.156ZM171.693 88.1324C164.652 100.689 151.226 109.156 135.829 109.156V119.156C154.988 119.156 171.677 108.607 180.415 93.0232L171.693 88.1324ZM209.819 98.1635C198.154 98.1635 187.502 93.8825 179.328 86.7992L172.779 94.3563C182.702 102.955 195.658 108.164 209.819 108.164V98.1635Z" fill="#212121" mask="url(#path-1-inside-1)"/>
<path d="M58.6728 303.108C58.8054 298.421 55.1132 294.514 50.4262 294.382C45.7392 294.249 41.8322 297.941 41.6996 302.628C41.5671 307.315 45.2592 311.222 49.9462 311.355C54.6332 311.487 58.5402 307.795 58.6728 303.108Z" fill="#FF4760" stroke="#212121" stroke-width="5"/>
<path d="M31.4299 315.06C35.1854 315.06 38.2299 312.016 38.2299 308.26C38.2299 304.504 35.1854 301.46 31.4299 301.46C27.6743 301.46 24.6299 304.504 24.6299 308.26C24.6299 312.016 27.6743 315.06 31.4299 315.06Z" fill="#FF4760" stroke="#212121" stroke-width="5"/>
<path d="M14.8399 317.13C17.8941 317.13 20.3699 314.654 20.3699 311.6C20.3699 308.546 17.8941 306.07 14.8399 306.07C11.7858 306.07 9.30994 308.546 9.30994 311.6C9.30994 314.654 11.7858 317.13 14.8399 317.13Z" fill="#FF4760" stroke="#212121" stroke-width="5"/>
<path fill-rule="evenodd" clip-rule="evenodd" d="M241.75 33C223.618 27.492 204.524 25.8895 185.727 28.2983C166.93 30.7072 148.858 37.0725 132.7 46.9748C116.543 56.8771 102.668 70.0915 91.9895 85.7469C81.3112 101.402 74.0723 119.143 70.7499 137.8C74.7949 130.409 79.5687 123.441 84.9999 117C123 69.07 179.84 32.11 241.75 33Z" fill="#F08023"/>
<path fill-rule="evenodd" clip-rule="evenodd" d="M97.9998 131C103.857 113.594 111.266 96.7493 120.14 80.67C107.247 91.5811 95.4756 103.751 84.9998 117C79.5686 123.441 74.7949 130.409 70.7498 137.8C67.1334 158.369 68.3383 179.496 74.2698 199.52C81.1898 183.68 84.0898 167.18 88.9998 150C90.9998 143 95.9998 138 97.9998 131Z" fill="#F08023"/>
<path fill-rule="evenodd" clip-rule="evenodd" d="M71.1498 206.08C68.7125 209.268 66.4813 212.608 64.4698 216.08C66.1998 213.97 67.7798 211.77 68.9998 209.95C69.7498 208.7 70.4598 207.39 71.1498 206.08Z" fill="#FF8023"/>
<path fill-rule="evenodd" clip-rule="evenodd" d="M71.1499 206.08C70.4599 207.39 69.7499 208.7 68.9999 210C67.7799 211.82 66.1999 214 64.4699 216.13C57.3579 228.491 53.1145 242.291 52.0535 256.512C50.9924 270.733 53.1408 285.011 58.3399 298.29C61.1399 265.73 65.2799 233.74 74.5899 201.78C73.3999 203.18 72.2599 204.62 71.1499 206.08Z" fill="#F08023"/>
<path fill-rule="evenodd" clip-rule="evenodd" d="M131.88 357.5C127.66 356.5 123.453 355.533 119.26 354.6C123.395 355.856 127.612 356.825 131.88 357.5Z" fill="#FF8023"/>
<path fill-rule="evenodd" clip-rule="evenodd" d="M6.54987 331.21C6.54987 331.21 20.6799 356.29 95.3399 349.47C63.4599 342.75 32.5399 336.26 2.85986 324.17C3.43908 326.804 4.71323 329.235 6.54987 331.21Z" fill="#F08023"/>
<path fill-rule="evenodd" clip-rule="evenodd" d="M128 336C97.2599 337 66.5199 338.83 35.7899 335.43C55.1999 341.01 75.0799 345.2 95.3399 349.43C98.1899 349.17 101.12 348.87 104.15 348.51C109.002 350.961 114.057 352.985 119.26 354.56C123.447 355.5 127.653 356.467 131.88 357.46C142.827 359.199 153.992 359.027 164.88 356.95C169.63 356.64 174.75 356.28 180.11 355.87C163 346.59 146.71 335.22 128 336Z" fill="#F08023"/>
<path fill-rule="evenodd" clip-rule="evenodd" d="M253 37C249.32 35.51 245.55 34.17 241.72 33C196.72 32.35 154.45 51.68 120.11 80.67C111.247 96.7503 103.847 113.595 97.9999 131C95.9999 138 90.9999 143 88.9999 150C87.5399 155.12 86.2599 160.17 84.9999 165.17C98.5599 141.17 113.21 117.74 132 96C164.42 57.94 208.26 46.21 253 37Z" fill="#FA8023"/>
<path fill-rule="evenodd" clip-rule="evenodd" d="M337.39 200.29C347.293 186.923 351.742 170.29 349.837 153.764C347.932 137.237 339.814 122.054 327.13 111.29C320.385 94.5699 310.347 79.3769 297.612 66.6145C284.877 53.8521 269.705 43.781 253 37C208.23 46.21 164.39 57.94 132 96C113.2 117.74 98.5499 141.2 84.9999 165.17C81.9999 176.95 79.1399 188.4 74.2799 199.52C74.4499 200.07 74.6099 200.63 74.7699 201.19C75.1799 199.79 75.5799 198.4 76.0099 197C75.5799 198.4 75.1799 199.79 74.7699 201.19L74.8599 201.47L74.5999 201.78C65.2899 233.78 61.1499 265.78 58.3499 298.29C58.8099 299.46 59.2799 300.61 59.7799 301.76L58.0099 302.29C57.6565 306.517 57.3232 310.753 57.0099 315C57.3299 310.753 57.6632 306.517 58.0099 302.29C46.1799 305.85 23.6799 311.97 12.9099 312.61C3.52987 313.16 1.70987 318.93 2.90987 324.17C13.6783 328.507 24.6706 332.266 35.8399 335.43C66.5699 338.83 97.3099 336.96 128.05 336C146.76 335.22 163.05 346.59 180.19 355.91C211.27 353.51 250.95 349.35 280.71 343.31C296.813 342.313 312.3 336.753 325.36 327.28C338.421 317.808 348.515 304.814 354.465 289.817C360.414 274.82 361.973 258.439 358.958 242.59C355.943 226.74 348.48 212.075 337.44 200.31L337.39 200.29Z" fill="#FF8023"/>
<path d="M327.13 111.24L324.81 112.18L325.04 112.75L325.51 113.15L327.13 111.24ZM74.8499 201.47L76.7399 203.1L77.6499 202.1L77.2299 200.77L74.8499 201.47ZM59.7699 301.76L60.5099 304.15L63.1899 303.33L62.0599 300.75L59.7699 301.76ZM12.8999 312.61L12.7499 310.11L12.8999 312.61ZM6.54988 331.21L8.72987 329.98L8.56989 329.68L8.31989 329.44L6.54988 331.21ZM104.14 348.55L105.27 346.32L104.6 345.98L103.85 346.07L104.14 348.55ZM164.91 357L164.74 354.51H164.59H164.44L164.91 357ZM280.66 343.32L280.51 340.83H280.34H280.17L280.66 343.32ZM337.39 200.32L335.39 198.83L334.15 200.51L335.58 202.04L337.39 200.32ZM202.73 29.71C228.984 29.707 254.64 37.5589 276.395 52.2557C298.151 66.9526 315.012 87.8221 324.81 112.18L329.44 110.31C319.271 85.0279 301.77 63.3664 279.19 48.1118C256.609 32.8571 229.98 24.7071 202.73 24.71V29.71ZM71.2099 161.24C71.2086 143.968 74.6095 126.864 81.2184 110.906C87.8273 94.9485 97.5148 80.4487 109.728 68.2349C121.941 56.021 136.44 46.3325 152.397 39.7223C168.354 33.1122 185.458 29.71 202.73 29.71V24.71C166.522 24.7127 131.797 39.0982 106.195 64.7023C80.5929 90.3063 66.2099 125.032 66.2099 161.24H71.2099ZM77.2099 200.72C73.2138 187.942 71.1906 174.629 71.2099 161.24H66.2099C66.1951 175.145 68.3027 188.971 72.4599 202.24L77.2099 200.72ZM54.2699 263.56C54.2371 241.362 62.2076 219.897 76.7199 203.1L72.9999 199.84C57.7073 217.544 49.3074 240.166 49.3399 263.56H54.2699ZM62.0399 300.75C56.9014 289.026 54.2555 276.361 54.2699 263.56H49.2699C49.2555 277.053 52.0444 290.402 57.4599 302.76L62.0399 300.75ZM12.9999 315.1C18.9299 314.75 28.0499 312.84 36.9399 310.65C45.8299 308.46 54.8199 305.88 60.4699 304.15L58.9999 299.37C53.4299 301.07 44.5899 303.61 35.7399 305.79C26.8899 307.97 18.1199 309.79 12.7399 310.11L12.9999 315.1ZM8.27988 329.44C6.08907 327.072 4.92426 323.934 5.03987 320.71C5.07907 320.023 5.25389 319.35 5.55423 318.73C5.85457 318.111 6.27451 317.557 6.78987 317.1C7.87987 316.1 9.78988 315.29 12.9999 315.1L12.7099 310.1C8.70988 310.33 5.70988 311.43 3.49988 313.32C1.49514 315.09 0.260821 317.573 0.0598753 320.24C-0.0658568 322.577 0.289017 324.915 1.10257 327.11C1.91612 329.305 3.17107 331.309 4.78987 333L8.27988 329.44ZM103.81 346.07C62.8899 350.89 38.9299 346.54 25.3299 341.19C20.413 339.394 15.8452 336.758 11.8299 333.4C10.9046 332.607 10.0513 331.734 9.27988 330.79C9.03988 330.48 8.86988 330.25 8.77988 330.12L8.68988 329.98L6.50987 331.21L4.33987 332.44C4.36422 332.471 4.3844 332.504 4.39987 332.54L4.59988 332.84C4.83073 333.187 5.08113 333.521 5.34988 333.84C6.29921 335.017 7.35355 336.104 8.49988 337.09C12.9618 340.827 18.0366 343.764 23.4999 345.77C38.0999 351.52 62.9399 355.85 104.4 350.97L103.81 346.07ZM146.88 356.19C132.415 356.209 118.148 352.829 105.23 346.32L103 350.78C116.614 357.645 131.653 361.211 146.9 361.19L146.88 356.19ZM164.4 354.54C158.625 355.639 152.759 356.192 146.88 356.19V361.19C153.074 361.192 159.255 360.609 165.34 359.45L164.4 354.54ZM280.13 340.86C245.4 347.91 196.98 352.39 164.7 354.5L165.03 359.5C197.36 357.39 246.03 352.89 281.12 345.77L280.13 340.86ZM357.9 258.49C357.899 279.491 349.888 299.701 335.5 314.999C321.112 330.297 301.431 339.532 280.47 340.82L280.77 345.82C303.003 344.455 323.878 334.662 339.14 318.436C354.401 302.211 362.898 280.775 362.9 258.5L357.9 258.49ZM335.57 202C349.965 217.28 357.969 237.488 357.94 258.48H362.94C362.969 236.213 354.479 214.778 339.21 198.57L335.57 202ZM347.79 161.23C347.814 174.761 343.46 187.937 335.38 198.79L339.38 201.79C348.095 190.069 352.791 175.846 352.77 161.24L347.79 161.23ZM325.51 113.14C332.498 119.053 338.112 126.419 341.96 134.725C345.809 143.031 347.798 152.076 347.79 161.23H352.79C352.806 151.354 350.668 141.593 346.522 132.629C342.377 123.665 336.325 115.714 328.79 109.33L325.51 113.14Z" fill="#212121"/>
<path d="M133 151C134.148 151.543 135.127 152.388 135.832 153.445C136.537 154.502 136.94 155.731 137 157" stroke="#212121" stroke-width="2" stroke-linecap="round" stroke-linejoin="round"/>
<path d="M136.44 154.92C136.44 154.92 135.21 156.47 132 154.92" stroke="#212121" stroke-width="2" stroke-linecap="round" stroke-linejoin="round"/>
<path d="M218.8 129.54C226.04 129.54 231.91 123.67 231.91 116.43C231.91 109.189 226.04 103.32 218.8 103.32C211.559 103.32 205.69 109.189 205.69 116.43C205.69 123.67 211.559 129.54 218.8 129.54Z" fill="#212121"/>
<path d="M224.41 121.08C226.514 121.08 228.22 119.374 228.22 117.27C228.22 115.166 226.514 113.46 224.41 113.46C222.306 113.46 220.6 115.166 220.6 117.27C220.6 119.374 222.306 121.08 224.41 121.08Z" fill="white"/>
<path d="M221.87 112.62C223.035 112.62 223.98 111.675 223.98 110.51C223.98 109.345 223.035 108.4 221.87 108.4C220.705 108.4 219.76 109.345 219.76 110.51C219.76 111.675 220.705 112.62 221.87 112.62Z" fill="white"/>
<path d="M286.03 121.92C292.1 121.92 297.02 117 297.02 110.93C297.02 104.86 292.1 99.9399 286.03 99.9399C279.96 99.9399 275.04 104.86 275.04 110.93C275.04 117 279.96 121.92 286.03 121.92Z" fill="#212121"/>
<path d="M290.73 114.83C292.492 114.83 293.92 113.402 293.92 111.64C293.92 109.878 292.492 108.45 290.73 108.45C288.968 108.45 287.54 109.878 287.54 111.64C287.54 113.402 288.968 114.83 290.73 114.83Z" fill="white"/>
<path d="M288.6 107.73C289.577 107.73 290.37 106.937 290.37 105.96C290.37 104.982 289.577 104.19 288.6 104.19C287.622 104.19 286.83 104.982 286.83 105.96C286.83 106.937 287.622 107.73 288.6 107.73Z" fill="white"/>
<path d="M209.92 181.96C222.529 181.96 232.75 171.739 232.75 159.13C232.75 146.521 222.529 136.3 209.92 136.3C197.311 136.3 187.09 146.521 187.09 159.13C187.09 171.739 197.311 181.96 209.92 181.96Z" fill="url(#paint0_radial)"/>
<path d="M322 156C331.389 156 339 148.389 339 139C339 129.611 331.389 122 322 122C312.611 122 305 129.611 305 139C305 148.389 312.611 156 322 156Z" fill="url(#paint1_radial)"/>
<path d="M271.65 145.6C273.517 145.6 275.03 144.087 275.03 142.22C275.03 140.353 273.517 138.84 271.65 138.84C269.783 138.84 268.27 140.353 268.27 142.22C268.27 144.087 269.783 145.6 271.65 145.6Z" fill="#212121"/>
<path d="M289.83 142.22C291.465 142.22 292.79 140.895 292.79 139.26C292.79 137.625 291.465 136.3 289.83 136.3C288.195 136.3 286.87 137.625 286.87 139.26C286.87 140.895 288.195 142.22 289.83 142.22Z" fill="#212121"/>
<path d="M276.84 162.12C276.288 161.776 275.624 161.66 274.988 161.797C274.353 161.934 273.795 162.314 273.435 162.855C273.075 163.396 272.939 164.057 273.058 164.696C273.176 165.336 273.539 165.904 274.07 166.28L276.84 162.12ZM297.06 162.5C297.394 161.927 297.487 161.245 297.318 160.604C297.149 159.962 296.733 159.414 296.16 159.08C295.587 158.746 294.905 158.653 294.263 158.822C293.622 158.991 293.074 159.407 292.74 159.98L297.06 162.5ZM274.06 166.28C276.96 168.146 280.259 169.301 283.69 169.65C286.111 169.891 288.552 169.491 290.77 168.49C293.437 167.193 295.633 165.096 297.05 162.49L292.74 160C291.838 161.728 290.413 163.128 288.67 164C287.241 164.63 285.673 164.875 284.12 164.71C281.53 164.426 279.04 163.554 276.84 162.16L274.06 166.28Z" fill="#212121"/>
<path d="M143.24 145.25C141.575 143.312 139.395 141.886 136.952 141.137C134.51 140.388 131.905 140.346 129.44 141.016C126.974 141.686 124.749 143.041 123.023 144.924C121.296 146.807 120.138 149.14 119.683 151.654C119.228 154.168 119.494 156.759 120.451 159.128C121.409 161.497 123.017 163.546 125.091 165.038C127.165 166.529 129.619 167.403 132.169 167.558C134.719 167.712 137.261 167.141 139.5 165.91" stroke="#212121" stroke-width="3" stroke-linecap="round" stroke-linejoin="round"/>
<path d="M177.5 380.5C195.173 380.5 209.5 366.173 209.5 348.5C209.5 330.827 195.173 316.5 177.5 316.5C159.827 316.5 145.5 330.827 145.5 348.5C145.5 366.173 159.827 380.5 177.5 380.5Z" fill="#F27121" stroke="#212121" stroke-width="5"/>
<path d="M387.5 301.5C387.5 318.89 374.94 332.5 360 332.5C345.06 332.5 332.5 318.89 332.5 301.5C332.5 284.11 345.06 270.5 360 270.5C374.94 270.5 387.5 284.11 387.5 301.5Z" fill="#FF8023" stroke="#212121" stroke-width="5"/>
<path d="M387.5 302C387.5 309.9 385.5 316.93 382.5 321.9C379.5 326.87 375.5 329.5 371.5 329.5C367.5 329.5 363.64 326.92 360.5 321.9C357.36 316.88 355.5 309.9 355.5 302C355.5 294.1 357.5 287.07 360.5 282.1C363.5 277.13 367.5 274.5 371.5 274.5C375.5 274.5 379.36 277.09 382.5 282.1C385.64 287.11 387.5 294.1 387.5 302Z" fill="#F27121" stroke="#212121" stroke-width="5"/>
<path d="M176.83 372.66C189.439 372.66 199.66 362.439 199.66 349.83C199.66 337.221 189.439 327 176.83 327C164.221 327 154 337.221 154 349.83C154 362.439 164.221 372.66 176.83 372.66Z" fill="url(#paint2_radial)"/>
<path d="M372.5 319C378.851 319 384 311.165 384 301.5C384 291.835 378.851 284 372.5 284C366.149 284 361 291.835 361 301.5C361 311.165 366.149 319 372.5 319Z" fill="url(#paint3_radial)"/>
<path d="M272.86 65.0574C274.887 61.5306 272.016 56.0771 266.447 52.8766C260.878 49.6761 254.72 49.9406 252.694 53.4674C250.667 56.9942 253.538 62.4477 259.107 65.6482C264.676 68.8487 270.833 68.5842 272.86 65.0574Z" fill="#FFE5D4"/>
<path d="M284.114 72.4791C285.362 70.3172 284.467 67.4633 282.113 66.1046C279.76 64.746 276.841 65.3972 275.593 67.5591C274.344 69.721 275.24 72.5749 277.593 73.9335C279.947 75.2921 282.866 74.641 284.114 72.4791Z" fill="#FFE5D4"/>
<path d="M220.839 270.671C217.459 249.678 231.737 229.921 252.73 226.541L268.814 223.952C290.068 220.53 309.998 235.2 313.045 256.511L322.383 321.797C322.946 325.737 320.714 329.506 316.999 330.826C307.606 334.163 291.352 339.621 279.208 342.029C267.26 344.398 250.539 345.55 240.421 346.061C236.2 346.275 232.524 343.25 231.846 339.041L220.839 270.671Z" fill="#FF4760" stroke="#212121" stroke-width="3"/>
<path d="M220.5 265.5C238.667 266.667 282.1 264.9 310.5 248.5" stroke="#212121" stroke-width="3"/>
<path d="M225.5 295.5C243.667 296.667 287.1 294.9 315.5 278.5" stroke="#212121" stroke-width="3"/>
<path d="M229.5 325.5C247.667 326.667 291.1 324.9 319.5 308.5" stroke="#212121" stroke-width="3"/>
<defs>
<radialGradient id="paint0_radial" cx="0" cy="0" r="1" gradientUnits="userSpaceOnUse" gradientTransform="translate(208.723 159.057) rotate(90) scale(22.83)">
<stop offset="0.51" stop-color="#FF4760"/>
<stop offset="1" stop-color="#FF8023"/>
</radialGradient>
<radialGradient id="paint1_radial" cx="0" cy="0" r="1" gradientUnits="userSpaceOnUse" gradientTransform="translate(321.108 138.945) rotate(90) scale(17)">
<stop offset="0.51" stop-color="#FF4760"/>
<stop offset="1" stop-color="#FF8023"/>
</radialGradient>
<radialGradient id="paint2_radial" cx="0" cy="0" r="1" gradientUnits="userSpaceOnUse" gradientTransform="translate(175.633 349.757) rotate(90) scale(22.83)">
<stop offset="0.51" stop-color="#FF4760"/>
<stop offset="1" stop-color="#F27121"/>
</radialGradient>
<radialGradient id="paint3_radial" cx="0" cy="0" r="1" gradientUnits="userSpaceOnUse" gradientTransform="translate(371.897 301.444) rotate(90) scale(17.5 11.5)">
<stop offset="0.51" stop-color="#FF4760"/>
<stop offset="1" stop-color="#F27121"/>
</radialGradient>
</defs>
</svg>
