<svg width="274" height="240" viewBox="0 0 274 240" fill="none" xmlns="http://www.w3.org/2000/svg">
<g filter="url(#filter0_d)">
<mask id="path-1-inside-1" fill="white">
<path fill-rule="evenodd" clip-rule="evenodd" d="M117.791 94.8038C97.1348 94.8038 80.3894 78.0584 80.3894 57.4019C80.3894 36.7454 97.1348 20 117.791 20C133.033 20 146.146 29.1174 151.973 42.1959C157.455 38.2596 164.178 35.9419 171.442 35.9419C189.897 35.9419 204.858 50.9029 204.858 69.3583C204.858 69.5665 204.856 69.7742 204.852 69.9814C218.735 72.0515 229.384 84.0235 229.384 98.4827C229.384 106.786 225.872 114.269 220.253 119.528C228.219 123.579 233.676 131.854 233.676 141.403C233.676 154.948 222.695 165.929 209.15 165.929C195.605 165.929 184.624 154.948 184.624 141.403C184.624 135.33 186.832 129.773 190.488 125.489C180.831 121.884 173.627 113.248 172.065 102.769C171.858 102.773 171.65 102.775 171.442 102.775C158.913 102.775 147.995 95.88 142.274 85.6779C135.714 91.3634 127.154 94.8038 117.791 94.8038Z"/>
</mask>
<path fill-rule="evenodd" clip-rule="evenodd" d="M117.791 94.8038C97.1348 94.8038 80.3894 78.0584 80.3894 57.4019C80.3894 36.7454 97.1348 20 117.791 20C133.033 20 146.146 29.1174 151.973 42.1959C157.455 38.2596 164.178 35.9419 171.442 35.9419C189.897 35.9419 204.858 50.9029 204.858 69.3583C204.858 69.5665 204.856 69.7742 204.852 69.9814C218.735 72.0515 229.384 84.0235 229.384 98.4827C229.384 106.786 225.872 114.269 220.253 119.528C228.219 123.579 233.676 131.854 233.676 141.403C233.676 154.948 222.695 165.929 209.15 165.929C195.605 165.929 184.624 154.948 184.624 141.403C184.624 135.33 186.832 129.773 190.488 125.489C180.831 121.884 173.627 113.248 172.065 102.769C171.858 102.773 171.65 102.775 171.442 102.775C158.913 102.775 147.995 95.88 142.274 85.6779C135.714 91.3634 127.154 94.8038 117.791 94.8038Z" fill="#FF4760"/>
<path d="M151.973 42.1959L154.889 46.2574L149.903 49.8372L147.406 44.2307L151.973 42.1959ZM204.852 69.9814L204.115 74.9267L199.773 74.2793L199.853 69.89L204.852 69.9814ZM220.253 119.528L217.986 123.985L211.628 120.751L216.836 115.877L220.253 119.528ZM190.488 125.489L192.237 120.805L198.927 123.303L194.291 128.735L190.488 125.489ZM172.065 102.769L171.973 97.7699L176.363 97.6896L177.01 102.032L172.065 102.769ZM142.274 85.6779L139 81.8993L143.635 77.882L146.636 83.2325L142.274 85.6779ZM85.3894 57.4019C85.3894 75.297 99.8963 89.8038 117.791 89.8038V99.8038C94.3734 99.8038 75.3894 80.8198 75.3894 57.4019H85.3894ZM117.791 25C99.8963 25 85.3894 39.5068 85.3894 57.4019H75.3894C75.3894 33.984 94.3734 15 117.791 15V25ZM147.406 44.2307C142.353 32.8898 130.988 25 117.791 25V15C135.079 15 149.939 25.3449 156.54 40.1611L147.406 44.2307ZM171.442 40.9419C165.258 40.9419 159.55 42.9111 154.889 46.2574L149.057 38.1344C155.36 33.6081 163.097 30.9419 171.442 30.9419V40.9419ZM199.858 69.3583C199.858 53.6643 187.136 40.9419 171.442 40.9419V30.9419C192.658 30.9419 209.858 48.1415 209.858 69.3583H199.858ZM199.853 69.89C199.856 69.7132 199.858 69.536 199.858 69.3583H209.858C209.858 69.597 209.856 69.8351 209.852 70.0728L199.853 69.89ZM224.384 98.4827C224.384 86.5367 215.585 76.637 204.115 74.9267L205.59 65.0361C221.886 67.4661 234.384 81.5104 234.384 98.4827H224.384ZM216.836 115.877C221.488 111.525 224.384 105.346 224.384 98.4827H234.384C234.384 108.227 230.257 117.014 223.669 123.179L216.836 115.877ZM228.676 141.403C228.676 133.808 224.34 127.217 217.986 123.985L222.519 115.071C232.097 119.942 238.676 129.9 238.676 141.403H228.676ZM209.15 160.929C219.934 160.929 228.676 152.187 228.676 141.403H238.676C238.676 157.71 225.457 170.929 209.15 170.929V160.929ZM189.624 141.403C189.624 152.187 198.366 160.929 209.15 160.929V170.929C192.843 170.929 179.624 157.71 179.624 141.403H189.624ZM194.291 128.735C191.378 132.148 189.624 136.564 189.624 141.403H179.624C179.624 134.096 182.285 127.397 186.685 122.243L194.291 128.735ZM177.01 102.032C178.299 110.677 184.252 117.824 192.237 120.805L188.739 130.173C177.411 125.944 168.955 115.818 167.12 103.507L177.01 102.032ZM171.442 97.7748C171.619 97.7748 171.797 97.7732 171.973 97.7699L172.156 107.768C171.918 107.773 171.68 107.775 171.442 107.775V97.7748ZM146.636 83.2325C151.507 91.9211 160.794 97.7748 171.442 97.7748V107.775C157.032 107.775 144.482 99.839 137.913 88.1233L146.636 83.2325ZM117.791 89.8038C125.906 89.8038 133.314 86.8271 139 81.8993L145.549 89.4564C138.114 95.8998 128.402 99.8038 117.791 99.8038V89.8038Z" fill="#212121" mask="url(#path-1-inside-1)"/>
<path d="M174.793 128.765C173.914 129.106 172.104 130.454 171.893 133.116" stroke="#212121" stroke-width="2" stroke-linecap="round" stroke-linejoin="round"/>
<path d="M172.297 131.61C172.297 131.61 173.187 132.727 175.518 131.61" stroke="#212121" stroke-width="2" stroke-linecap="round" stroke-linejoin="round"/>
<circle r="16.5549" transform="matrix(-1 0 0 1 119.018 134.658)" fill="url(#paint0_radial)"/>
<circle r="12.2629" transform="matrix(-1 0 0 1 36.2429 119.943)" fill="url(#paint1_radial)"/>
<circle r="2.45258" transform="matrix(-1 0 0 1 74.258 122.395)" fill="#212121"/>
<circle r="2.14601" transform="matrix(-1 0 0 1 61.0753 120.249)" fill="#212121"/>
<path d="M67.5419 102.907C68.3804 104.004 69.9494 104.213 71.0463 103.375C72.1433 102.536 72.3528 100.967 71.5143 99.8702L67.5419 102.907ZM51.8994 96.8186C50.8696 97.7384 50.7804 99.3187 51.7001 100.349C52.6199 101.378 54.2003 101.467 55.2301 100.548L51.8994 96.8186ZM71.5143 99.8702C70.5971 98.6702 68.1176 96.0105 64.7003 94.5402C62.953 93.7885 60.8811 93.3147 58.6249 93.5888C56.3454 93.8658 54.0652 94.8842 51.8994 96.8186L55.2301 100.548C56.718 99.2188 58.0685 98.6932 59.2279 98.5523C60.4105 98.4087 61.5855 98.6433 62.7242 99.1332C65.0787 100.146 66.9272 102.102 67.5419 102.907L71.5143 99.8702Z" fill="#212121"/>
<path d="M108.321 110.166C109.15 111.27 110.717 111.493 111.821 110.663C112.925 109.834 113.148 108.267 112.319 107.163L108.321 110.166ZM86.6708 103.152C85.6482 104.08 85.5713 105.661 86.4989 106.683C87.4266 107.706 89.0077 107.783 90.0303 106.855L86.6708 103.152ZM112.319 107.163C111.121 105.569 107.841 101.999 103.334 100.052C101.041 99.0611 98.351 98.4578 95.4369 98.8326C92.5013 99.2102 89.5322 100.556 86.6708 103.152L90.0303 106.855C92.2264 104.863 94.2702 104.024 96.0748 103.792C97.9008 103.557 99.6784 103.919 101.351 104.642C104.777 106.122 107.423 108.971 108.321 110.166L112.319 107.163Z" fill="#212121"/>
<path d="M167.368 124.592C168.575 123.185 170.157 122.148 171.929 121.603C173.702 121.058 175.592 121.026 177.382 121.511C179.172 121.997 180.787 122.98 182.041 124.346C183.295 125.712 184.136 127.406 184.467 129.23C184.798 131.055 184.604 132.936 183.91 134.655C183.215 136.375 182.047 137.862 180.541 138.945C179.035 140.027 177.254 140.661 175.403 140.772C173.552 140.883 171.707 140.468 170.082 139.573" stroke="#212121" stroke-width="3" stroke-linecap="round" stroke-linejoin="round"/>
<path d="M88.1291 135.597C89.4188 135.104 90.864 135.75 91.3571 137.04C91.8502 138.329 91.2044 139.774 89.9148 140.268L88.1291 135.597ZM48.3856 131.735C47.6136 130.59 47.9158 129.036 49.0605 128.264C50.2053 127.492 51.7591 127.795 52.531 128.939L48.3856 131.735ZM89.9148 140.268C87.0633 141.358 79.7411 143.483 71.6715 143.286C63.5785 143.088 54.3118 140.523 48.3856 131.735L52.531 128.939C57.2036 135.868 64.5758 138.111 71.7935 138.287C79.0346 138.464 85.6949 136.528 88.1291 135.597L89.9148 140.268Z" fill="#212121"/>
<path d="M86.3705 140.793L86.1633 139.307L84.6776 139.514L84.6583 139.517L84.6389 139.52L84.6194 139.523L84.5998 139.525L84.58 139.528L84.5601 139.531L84.5401 139.534L84.52 139.536L84.4997 139.539L84.4794 139.542L84.4589 139.545L84.4383 139.548L84.4176 139.551L84.3968 139.554L84.3758 139.557L84.3548 139.559L84.3336 139.562L84.3124 139.565L84.291 139.568L84.2695 139.571L84.2479 139.574L84.2262 139.577L84.2044 139.58L84.1825 139.584L84.1605 139.587L84.1383 139.59L84.1161 139.593L84.0937 139.596L84.0713 139.599L84.0487 139.602L84.0261 139.605L84.0033 139.609L83.9805 139.612L83.9575 139.615L83.9344 139.618L83.9113 139.621L83.888 139.625L83.8647 139.628L83.8412 139.631L83.8176 139.634L83.794 139.638L83.7702 139.641L83.7464 139.644L83.7225 139.648L83.6984 139.651L83.6743 139.654L83.6501 139.658L83.6258 139.661L83.6014 139.665L83.5769 139.668L83.5523 139.671L83.5276 139.675L83.5028 139.678L83.478 139.682L83.453 139.685L83.428 139.689L83.4029 139.692L83.3777 139.696L83.3524 139.699L83.327 139.703L83.3016 139.706L83.276 139.71L83.2504 139.714L83.2247 139.717L83.1989 139.721L83.173 139.724L83.1471 139.728L83.121 139.732L83.0949 139.735L83.0687 139.739L83.0425 139.743L83.0161 139.746L82.9897 139.75L82.9632 139.754L82.9366 139.757L82.91 139.761L82.8832 139.765L82.8564 139.769L82.8296 139.772L82.8026 139.776L82.7756 139.78L82.7485 139.784L82.7214 139.787L82.6941 139.791L82.6668 139.795L82.6395 139.799L82.612 139.803L82.5845 139.806L82.557 139.81L82.5293 139.814L82.5016 139.818L82.4738 139.822L82.446 139.826L82.4181 139.83L82.3902 139.834L82.3621 139.837L82.3341 139.841L82.3059 139.845L82.2777 139.849L82.2494 139.853L82.2211 139.857L82.1927 139.861L82.1643 139.865L82.1358 139.869L82.1072 139.873L82.0786 139.877L82.0499 139.881L82.0212 139.885L81.9924 139.889L81.9636 139.893L81.9347 139.897L81.9058 139.901L81.8768 139.905L81.8477 139.909L81.8186 139.913L81.7895 139.917L81.7603 139.921L81.731 139.926L81.7018 139.93L81.6724 139.934L81.643 139.938L81.6136 139.942L81.5841 139.946L81.5546 139.95L81.525 139.954L81.4954 139.958L81.4658 139.963L81.4361 139.967L81.4063 139.971L81.3765 139.975L81.3467 139.979L81.3168 139.983L81.2869 139.987L81.257 139.992L81.227 139.996L81.197 140L81.1669 140.004L81.1369 140.008L81.1067 140.013L81.0766 140.017L81.0464 140.021L81.0161 140.025L80.9859 140.029L80.9556 140.034L80.9252 140.038L80.8949 140.042L80.8645 140.046L80.8341 140.051L80.8036 140.055L80.7731 140.059L80.7426 140.063L80.7121 140.068L80.6815 140.072L80.6509 140.076L80.6203 140.08L80.5897 140.085L80.559 140.089L80.5283 140.093L80.4976 140.098L80.4669 140.102L80.4361 140.106L80.4053 140.11L80.3745 140.115L80.3437 140.119L80.3128 140.123L80.282 140.128L80.2511 140.132L80.2202 140.136L80.1893 140.141L80.1584 140.145L80.1274 140.149L80.0965 140.154L80.0655 140.158L80.0345 140.162L80.0035 140.167L79.9725 140.171L79.9414 140.175L79.9104 140.179L79.8793 140.184L79.8483 140.188L79.8172 140.192L79.7861 140.197L79.755 140.201L79.7239 140.206L79.6928 140.21L79.6617 140.214L79.6306 140.219L79.5995 140.223L79.5683 140.227L79.5372 140.232L79.5061 140.236L79.4749 140.24L79.4438 140.245L79.4126 140.249L79.3815 140.253L79.3504 140.258L79.3192 140.262L79.2881 140.266L79.2569 140.271L79.2258 140.275L79.1946 140.279L79.1635 140.284L79.1324 140.288L79.1013 140.292L79.0701 140.297L79.039 140.301L79.0079 140.305L78.9768 140.31L78.9457 140.314L78.9146 140.318L78.8836 140.323L78.8525 140.327L78.8214 140.331L78.7904 140.336L78.7594 140.34L78.7283 140.344L78.6973 140.349L78.6663 140.353L78.6353 140.357L78.6044 140.362L78.5734 140.366L78.5425 140.37L78.5116 140.375L78.4807 140.379L78.4498 140.383L78.4189 140.388L78.3881 140.392L78.3572 140.396L78.3264 140.4L78.2956 140.405L78.2649 140.409L78.2341 140.413L78.2034 140.418L78.1727 140.422L78.142 140.426L78.1114 140.43L78.0807 140.435L78.0501 140.439L78.0196 140.443L77.989 140.448L77.9585 140.452L77.928 140.456L77.8976 140.46L77.8671 140.465L77.8367 140.469L77.8063 140.473L77.776 140.477L77.7457 140.481L77.7154 140.486L77.6852 140.49L77.655 140.494L77.6248 140.498L77.5947 140.503L77.5646 140.507L77.5345 140.511L77.5045 140.515L77.4745 140.519L77.4445 140.523L77.4146 140.528L77.3847 140.532L77.3549 140.536L77.3251 140.54L77.2953 140.544L77.2656 140.548L77.236 140.553L77.2063 140.557L77.1767 140.561L77.1472 140.565L77.1177 140.569L77.0883 140.573L77.0589 140.577L77.0295 140.581L77.0002 140.585L76.9709 140.59L76.9417 140.594L76.9126 140.598L76.8835 140.602L76.8544 140.606L76.8254 140.61L76.7964 140.614L76.7675 140.618L76.7387 140.622L76.7099 140.626L76.6811 140.63L76.6524 140.634L76.6238 140.638L76.5952 140.642L76.5667 140.646L76.5383 140.65L76.5099 140.654L76.4815 140.658L76.4532 140.662L76.425 140.666L76.3968 140.67L76.3687 140.674L76.3407 140.677L76.3127 140.681L76.2848 140.685L76.2569 140.689L76.2291 140.693L76.2014 140.697L76.1738 140.701L76.1462 140.705L76.1186 140.708L76.0912 140.712L76.0638 140.716L76.0365 140.72L76.0092 140.724L75.982 140.727L75.9549 140.731L75.9279 140.735L75.9009 140.739L75.874 140.743L75.8472 140.746L75.8205 140.75L75.7938 140.754L75.7672 140.757L75.7407 140.761L75.7142 140.765L75.6878 140.769L75.6615 140.772L75.6353 140.776L75.6092 140.78L75.5831 140.783L75.5572 140.787L75.5313 140.79L75.5054 140.794L75.4797 140.798L75.454 140.801L75.4285 140.805L75.403 140.808L75.3776 140.812L75.3523 140.815L75.327 140.819L75.3019 140.822L75.2768 140.826L75.2519 140.829L75.227 140.833L75.2022 140.836L75.1775 140.84L75.1529 140.843L75.1283 140.847L75.1039 140.85L75.0796 140.853L75.0553 140.857L75.0312 140.86L75.0071 140.864L74.9831 140.867L74.9593 140.87L74.9355 140.873L74.9118 140.877L74.8882 140.88L74.8647 140.883L74.8413 140.887L74.818 140.89L74.7948 140.893L74.7717 140.896L74.7488 140.9L74.7259 140.903L74.7031 140.906L74.6804 140.909L74.6578 140.912L74.6353 140.915L74.6129 140.918L74.5907 140.922L74.5685 140.925L74.5464 140.928L74.5245 140.931L74.5026 140.934L74.4809 140.937L74.4593 140.94L74.4377 140.943L74.4163 140.946L74.395 140.949L74.3738 140.952L74.3528 140.955L74.3318 140.958L74.3109 140.961L74.2902 140.964L74.2696 140.966L74.2491 140.969L74.2287 140.972L74.2084 140.975L74.1882 140.978L74.1682 140.981L74.1482 140.983L74.1284 140.986L74.1087 140.989L74.0892 140.992L74.0697 140.994L74.0504 140.997L74.0312 141L74.0121 141.002L73.9931 141.005L73.9743 141.008L73.9556 141.01L73.937 141.013L73.9185 141.015L73.9002 141.018L73.882 141.02L73.8639 141.023L73.8459 141.025L73.8281 141.028L73.8104 141.03L73.7928 141.033L73.7754 141.035L73.7581 141.038L73.7409 141.04L73.7239 141.043L73.7069 141.045L73.6902 141.047L73.6735 141.05L73.657 141.052L73.6406 141.054L73.6244 141.056L73.6083 141.059L73.5923 141.061L73.5765 141.063L73.5608 141.065L73.5453 141.067L73.5298 141.07L73.5146 141.072L73.4994 141.074L73.4845 141.076L73.4696 141.078L73.4549 141.08L73.4403 141.082L73.4259 141.084L73.4117 141.086L73.3975 141.088L73.3835 141.09L73.3697 141.092L73.356 141.094L73.3425 141.096L73.3291 141.098L73.3159 141.099L73.3028 141.101L73.2898 141.103L73.277 141.105L73.2644 141.107L73.2519 141.108L73.2396 141.11L73.2274 141.112L73.2154 141.113L73.2035 141.115L73.1918 141.117L73.1802 141.118L73.1688 141.12L73.1575 141.122L73.1465 141.123L73.1355 141.125L73.1247 141.126L73.1141 141.128L73.1037 141.129L73.0934 141.13L73.0833 141.132L73.0733 141.133L73.0635 141.135L73.0538 141.136L73.0444 141.137L73.035 141.139L73.0259 141.14L73.0169 141.141L73.0081 141.142L72.9994 141.144L72.991 141.145L72.9826 141.146L72.9745 141.147L72.9665 141.148L72.9587 141.149L72.9511 141.15L72.9436 141.151L72.9363 141.152L72.9292 141.153L72.9223 141.154L72.9155 141.155L72.9089 141.156L72.9025 141.157L72.8962 141.158L72.8901 141.159L72.8842 141.16L72.8785 141.16L72.873 141.161L72.8676 141.162L72.8625 141.163L72.8575 141.163L72.8526 141.164L72.848 141.165L72.8435 141.165L72.8393 141.166L72.8352 141.166L72.8313 141.167L72.8276 141.168L72.824 141.168L72.8207 141.169L72.8175 141.169L72.8145 141.169L72.8117 141.17L72.8091 141.17L72.8067 141.17L72.8045 141.171L72.8025 141.171L72.8006 141.171L72.799 141.172L72.7975 141.172L72.7962 141.172L72.7952 141.172L72.7943 141.172L72.7936 141.172L72.7931 141.172L72.7928 141.172L73 142.658L72.7927 141.172L71.3071 141.38L71.5144 142.865C72.1318 147.292 75.8078 150.849 80.1168 150.248C84.4258 149.646 86.988 145.219 86.3705 140.793Z" fill="#E94057" stroke="#212121" stroke-width="3"/>
<path d="M78.5 141.5L79 145.5" stroke="#212121" stroke-width="3" stroke-linecap="round" stroke-linejoin="round"/>
<g clip-path="url(#clip0)">
<path fill-rule="evenodd" clip-rule="evenodd" d="M217.95 135.69C212.33 125.69 206.06 115.8 199.26 106C182.26 80.48 161.8 60.52 141.86 40.25C120.096 36.7319 97.7833 40.7255 78.591 51.5739C59.3986 62.4223 44.4698 79.4795 36.2599 99.94C30.5201 104.806 26.0177 110.966 23.1232 117.912C20.2287 124.858 19.0249 132.392 19.6107 139.894C20.1965 147.396 22.5552 154.652 26.4928 161.065C30.4304 167.478 35.8343 172.864 42.2599 176.78C59.0999 196.55 90.5099 202 126.49 202C139.21 202 150.78 201.63 161.17 200.28C164.668 198.045 168.036 195.615 171.26 193C191.76 176.75 204.26 156 217.95 135.69Z" fill="#FF8023"/>
<path fill-rule="evenodd" clip-rule="evenodd" d="M171.26 193C168.036 195.615 164.668 198.045 161.17 200.28C192.72 196.18 213.35 183.01 222.17 143.52C220.8 140.9 219.37 138.29 217.91 135.69C204.26 156 191.76 176.75 171.26 193Z" fill="#F08023"/>
<path fill-rule="evenodd" clip-rule="evenodd" d="M223.05 125.18C205.89 90.63 178.05 61.32 144.67 40.71C143.74 40.54 142.8 40.4 141.86 40.25C161.8 60.52 182.26 80.48 199.26 106C207.7 118.016 215.381 130.547 222.26 143.52C222.793 141.167 223.28 138.723 223.72 136.19C223.704 132.51 223.481 128.834 223.05 125.18Z" fill="#FA8023"/>
<path fill-rule="evenodd" clip-rule="evenodd" d="M144.67 40.71C178.07 61.32 205.89 90.63 223.05 125.18C220.694 104.585 211.818 85.2815 197.718 70.0859C183.618 54.8904 165.032 44.5979 144.67 40.71Z" fill="#F08023"/>
<path d="M42.2599 176.78L43.5599 174.65L43.8999 174.86L44.1599 175.16L42.2599 176.78ZM223.63 136.19H226.13V136.41V136.62L223.63 136.19ZM36.2599 99.94L38.5799 100.87L38.3499 101.44L37.8799 101.84L36.2599 99.94ZM44.1699 175.16C52.1699 184.53 63.6599 190.63 77.8099 194.39C91.9599 198.15 108.57 199.5 126.46 199.5V204.5C108.37 204.5 91.2799 203.13 76.5299 199.22C61.7799 195.31 49.2599 188.8 40.3899 178.4L44.1699 175.16ZM126.46 199.5C153.34 199.5 174.46 197.83 190.08 189.14C205.49 180.59 216.08 164.95 221.18 135.76L226.11 136.62C220.85 166.71 209.68 183.98 192.51 193.51C175.58 202.91 153.25 204.51 126.51 204.51L126.46 199.5ZM221.14 136.19C221.14 111.079 211.165 86.9971 193.409 69.2411C175.653 51.4852 151.571 41.51 126.46 41.51V36.51C139.55 36.51 152.512 39.0883 164.606 44.0977C176.7 49.1071 187.688 56.4495 196.944 65.7056C206.2 74.9618 213.543 85.9504 218.552 98.0441C223.562 110.138 226.14 123.1 226.14 136.19H221.14ZM126.49 41.51C107.591 41.5085 89.1245 47.1602 73.4639 57.7384C57.8032 68.3167 45.665 83.3377 38.6099 100.87L33.9699 99C41.398 80.5427 54.1774 64.7294 70.6649 53.5934C87.1523 42.4574 106.594 36.5079 126.49 36.51V41.51ZM37.9099 101.84C32.9189 106.064 28.9095 111.325 26.1616 117.258C23.4137 123.191 21.9935 129.652 21.9999 136.19H16.9999C16.9867 128.921 18.5621 121.736 21.6161 115.14C24.67 108.543 29.1286 102.693 34.6799 98L37.9099 101.84ZM21.9999 136.19C21.9961 143.916 23.9812 151.512 27.7643 158.248C31.5474 164.984 37.001 170.633 43.5999 174.65L40.9899 178.92C33.6582 174.457 27.599 168.181 23.3956 160.697C19.1922 153.213 16.9862 144.773 16.9899 136.19H21.9999Z" fill="#212121"/>
<path d="M177.05 128.77C176.216 129.162 175.506 129.775 174.995 130.541C174.484 131.308 174.191 132.2 174.15 133.12" stroke="#212121" stroke-width="2" stroke-linecap="round" stroke-linejoin="round"/>
<path d="M174.56 131.61C174.56 131.61 175.45 132.73 177.78 131.61" stroke="#212121" stroke-width="2" stroke-linecap="round" stroke-linejoin="round"/>
<path d="M121.28 151.21C130.42 151.21 137.83 143.8 137.83 134.66C137.83 125.52 130.42 118.11 121.28 118.11C112.14 118.11 104.73 125.52 104.73 134.66C104.73 143.8 112.14 151.21 121.28 151.21Z" fill="url(#paint2_radial)"/>
<path d="M38.5099 132.2C45.281 132.2 50.7699 126.711 50.7699 119.94C50.7699 113.169 45.281 107.68 38.5099 107.68C31.7389 107.68 26.2499 113.169 26.2499 119.94C26.2499 126.711 31.7389 132.2 38.5099 132.2Z" fill="url(#paint3_radial)"/>
<path d="M76.5199 124.84C77.873 124.84 78.9699 123.743 78.9699 122.39C78.9699 121.037 77.873 119.94 76.5199 119.94C75.1668 119.94 74.0699 121.037 74.0699 122.39C74.0699 123.743 75.1668 124.84 76.5199 124.84Z" fill="#212121"/>
<path d="M63.3399 122.4C64.5274 122.4 65.4899 121.437 65.4899 120.25C65.4899 119.063 64.5274 118.1 63.3399 118.1C62.1525 118.1 61.1899 119.063 61.1899 120.25C61.1899 121.437 62.1525 122.4 63.3399 122.4Z" fill="#212121"/>
<path d="M69.8 102.91C69.9969 103.173 70.2437 103.394 70.5262 103.561C70.8087 103.728 71.1214 103.838 71.4464 103.885C71.7714 103.931 72.1024 103.913 72.4204 103.832C72.7384 103.75 73.0373 103.607 73.3 103.41C73.5626 103.213 73.7839 102.966 73.9511 102.684C74.1184 102.401 74.2284 102.089 74.2748 101.764C74.3213 101.439 74.3032 101.108 74.2217 100.79C74.1403 100.471 73.9969 100.173 73.8 99.91L69.8 102.91ZM54.16 96.82C53.915 97.0386 53.7156 97.3034 53.573 97.5991C53.4304 97.8948 53.3474 98.2158 53.3289 98.5435C53.3103 98.8713 53.3565 99.1996 53.4647 99.5095C53.573 99.8195 53.7413 100.105 53.96 100.35C54.1786 100.595 54.4434 100.794 54.7391 100.937C55.0348 101.08 55.3557 101.162 55.6835 101.181C56.0113 101.2 56.3396 101.153 56.6495 101.045C56.9594 100.937 57.245 100.769 57.4899 100.55L54.16 96.82ZM73.77 99.87C71.9584 97.5748 69.6232 95.7471 66.9599 94.54C65.059 93.6694 62.9596 93.3241 60.8799 93.54C58.3593 93.8942 56.0111 95.0229 54.16 96.77L57.4899 100.5C58.5816 99.4318 59.9804 98.7324 61.49 98.5C62.6842 98.3791 63.889 98.5793 64.98 99.08C66.8571 99.9506 68.5069 101.244 69.8 102.86L73.77 99.87Z" fill="#212121"/>
<path d="M110.58 110.17C110.777 110.433 111.024 110.654 111.306 110.821C111.589 110.988 111.901 111.098 112.226 111.145C112.551 111.191 112.882 111.173 113.2 111.092C113.518 111.01 113.817 110.867 114.08 110.67C114.343 110.473 114.564 110.226 114.731 109.944C114.898 109.661 115.008 109.349 115.055 109.024C115.101 108.699 115.083 108.368 115.002 108.05C114.92 107.732 114.777 107.433 114.58 107.17L110.58 110.17ZM88.9299 103.17C88.5201 103.63 88.2946 104.225 88.2966 104.841C88.2985 105.457 88.5278 106.051 88.9406 106.508C89.3533 106.965 89.9203 107.254 90.5329 107.319C91.1455 107.384 91.7605 107.221 92.2599 106.86L88.9299 103.17ZM114.58 107.17C112.192 104.114 109.106 101.676 105.58 100.06C103.108 98.948 100.382 98.5264 97.6899 98.84C94.3893 99.3355 91.3245 100.845 88.9199 103.16L92.2599 106.86C93.8894 105.234 95.988 104.16 98.2599 103.79C100.064 103.593 101.889 103.886 103.54 104.64C106.276 105.906 108.675 107.801 110.54 110.17L114.58 107.17Z" fill="#212121"/>
<path d="M169.63 124.59C170.839 123.186 172.422 122.153 174.194 121.611C175.966 121.069 177.855 121.04 179.643 121.527C181.431 122.015 183.044 122.998 184.296 124.365C185.548 125.731 186.387 127.424 186.717 129.248C187.046 131.071 186.853 132.951 186.158 134.669C185.463 136.387 184.296 137.873 182.792 138.955C181.287 140.038 179.507 140.672 177.658 140.784C175.808 140.896 173.964 140.482 172.34 139.59" stroke="#212121" stroke-width="3" stroke-linecap="round" stroke-linejoin="round"/>
<path d="M90.3899 135.6C90.6989 135.471 91.0305 135.406 91.3652 135.408C91.6998 135.41 92.0307 135.479 92.3381 135.612C92.6455 135.744 92.9232 135.936 93.1548 136.178C93.3865 136.419 93.5672 136.705 93.6864 137.018C93.8056 137.33 93.8608 137.664 93.8487 137.998C93.8366 138.333 93.7575 138.661 93.6161 138.965C93.4747 139.268 93.2738 139.54 93.0254 139.764C92.777 139.988 92.4861 140.16 92.1699 140.27L90.3899 135.6ZM50.6499 131.74C50.4548 131.469 50.3161 131.161 50.2421 130.835C50.168 130.509 50.1601 130.171 50.2187 129.842C50.2774 129.513 50.4015 129.199 50.5837 128.919C50.7659 128.638 51.0024 128.397 51.2794 128.21C51.5563 128.023 51.868 127.893 52.196 127.828C52.5239 127.763 52.8616 127.765 53.1889 127.833C53.5162 127.901 53.8266 128.034 54.1016 128.224C54.3766 128.414 54.6106 128.658 54.7899 128.94L50.6499 131.74ZM92.1699 140.27C86.3172 142.349 80.1401 143.365 73.9299 143.27C65.8399 143.07 56.5699 140.5 50.6499 131.72L54.7899 128.92C59.4599 135.85 66.7899 138.09 74.0499 138.27C79.6124 138.341 85.1438 137.431 90.3899 135.58L92.1699 140.27Z" fill="#212121"/>
<path d="M90.3393 66.2398C94.1244 64.2652 96.1636 60.6916 94.894 58.258C93.6245 55.8244 89.5269 55.4523 85.7418 57.4269C81.9567 59.4015 79.9175 62.975 81.1871 65.4086C82.4566 67.8422 86.5542 68.2144 90.3393 66.2398Z" fill="#FFEADC"/>
<path d="M76.6299 71.68C78.204 71.68 79.4799 70.404 79.4799 68.83C79.4799 67.256 78.204 65.98 76.6299 65.98C75.0559 65.98 73.7799 67.256 73.7799 68.83C73.7799 70.404 75.0559 71.68 76.6299 71.68Z" fill="#FFEADC"/>
</g>
</g>
<defs>
<filter id="filter0_d" x="-6.10352e-05" y="0" width="273.94" height="239.5" filterUnits="userSpaceOnUse" color-interpolation-filters="sRGB">
<feFlood flood-opacity="0" result="BackgroundImageFix"/>
<feColorMatrix in="SourceAlpha" type="matrix" values="0 0 0 0 0 0 0 0 0 0 0 0 0 0 0 0 0 0 127 0"/>
<feOffset dx="8" dy="10"/>
<feGaussianBlur stdDeviation="12.5"/>
<feColorMatrix type="matrix" values="0 0 0 0 1 0 0 0 0 1 0 0 0 0 1 0 0 0 0.25 0"/>
<feBlend mode="normal" in2="BackgroundImageFix" result="effect1_dropShadow"/>
<feBlend mode="normal" in="SourceGraphic" in2="effect1_dropShadow" result="shape"/>
</filter>
<radialGradient id="paint0_radial" cx="0" cy="0" r="1" gradientUnits="userSpaceOnUse" gradientTransform="translate(16.5549 16.5549) rotate(90) scale(16.5549)">
<stop offset="0.509259" stop-color="#FF4760"/>
<stop offset="1" stop-color="#FF8023"/>
</radialGradient>
<radialGradient id="paint1_radial" cx="0" cy="0" r="1" gradientUnits="userSpaceOnUse" gradientTransform="translate(12.2629 12.2629) rotate(90) scale(12.2629)">
<stop offset="0.509259" stop-color="#FF4760"/>
<stop offset="1" stop-color="#FF8023"/>
</radialGradient>
<radialGradient id="paint2_radial" cx="0" cy="0" r="1" gradientUnits="userSpaceOnUse" gradientTransform="translate(124.623 135.865) rotate(90) scale(16.55)">
<stop offset="0.51" stop-color="#FF4760"/>
<stop offset="1" stop-color="#FF8023"/>
</radialGradient>
<radialGradient id="paint3_radial" cx="0" cy="0" r="1" gradientUnits="userSpaceOnUse" gradientTransform="translate(-199862 -71018.5) rotate(90) scale(300.615)">
<stop offset="0.51" stop-color="#FF4760"/>
<stop offset="1" stop-color="#FF8023"/>
</radialGradient>
<clipPath id="clip0">
<rect x="16.9999" y="15" width="223.94" height="189.5" fill="white"/>
</clipPath>
</defs>
</svg>
