<svg width="44" height="42" viewBox="0 0 44 42" fill="none" xmlns="http://www.w3.org/2000/svg">
<path d="M13.85 2.10996L36.47 10.6C37.75 11.0799 38.8953 11.8615 39.8089 12.8783C40.7224 13.8952 41.3772 15.1175 41.7178 16.4414C42.0583 17.7653 42.0745 19.1518 41.7651 20.4833C41.4556 21.8148 40.8295 23.052 39.94 24.09L29.17 36.65C28.2807 37.6876 27.1543 38.4955 25.8863 39.0052C24.6183 39.5149 23.2461 39.7114 21.886 39.5779C20.5259 39.4445 19.218 38.9851 18.0733 38.2386C16.9286 37.4922 15.9807 36.4807 15.31 35.29L3.46001 14.24C2.60446 12.7207 2.2368 10.9752 2.40688 9.23994C2.57696 7.50471 3.27654 5.86375 4.41078 4.53956C5.54502 3.21537 7.05904 2.27202 8.74756 1.8374C10.4361 1.40279 12.2174 1.49794 13.85 2.10996Z" fill="#FF8023" stroke="#212121" stroke-width="3" stroke-linecap="round" stroke-linejoin="round"/>
<path d="M12.5 16.9299C16.0899 16.9299 19 14.0198 19 10.4299C19 6.84008 16.0899 3.92993 12.5 3.92993C8.91015 3.92993 6 6.84008 6 10.4299C6 14.0198 8.91015 16.9299 12.5 16.9299Z" fill="url(#paint0_radial)"/>
<defs>
<radialGradient id="paint0_radial" cx="0" cy="0" r="1" gradientUnits="userSpaceOnUse" gradientTransform="translate(12.47 10.4149) rotate(90) scale(6.5)">
<stop offset="0.51" stop-color="#FF4760"/>
<stop offset="1" stop-color="#FF8023"/>
</radialGradient>
</defs>
</svg>
