<svg width="469" height="284" viewBox="0 0 469 284" fill="none" xmlns="http://www.w3.org/2000/svg">
<path d="M234.5 283.93C364.011 283.93 469 249.908 469 207.94C469 165.972 364.011 131.95 234.5 131.95C104.989 131.95 0 165.972 0 207.94C0 249.908 104.989 283.93 234.5 283.93Z" fill="url(#paint0_radial)" fill-opacity="0.5"/>
<path d="M235.5 177.43H261.5V221.14C256.41 223.35 252.5 224.42 248.59 224.43C244.68 224.44 240.7 223.43 235.5 221.14V177.43Z" fill="#F27121" stroke="#212121" stroke-width="3" stroke-linecap="round" stroke-linejoin="round"/>
<path d="M231.48 222.43C230.68 222.21 230.02 222.01 229.53 221.86C229.562 220.035 229.96 218.236 230.7 216.568C231.44 214.9 232.508 213.398 233.84 212.15C236.807 209.627 240.608 208.3 244.5 208.43C247.807 208.41 251.032 209.462 253.69 211.43C255.355 212.659 256.734 214.234 257.731 216.046C258.729 217.859 259.322 219.866 259.47 221.93C252.7 224.75 245.18 224.74 239.17 223.93C236.577 223.599 234.008 223.098 231.48 222.43Z" fill="#F27121" stroke="#212121" stroke-width="3"/>
<path d="M240.85 222.53C237.834 222.466 234.847 221.926 232 220.93C232.224 219.746 232.904 218.698 233.894 218.012C234.883 217.325 236.103 217.055 237.29 217.26C238.461 217.487 239.493 218.17 240.16 219.158C240.828 220.146 241.076 221.359 240.85 222.53V222.53Z" fill="#E94057"/>
<path d="M248 222.85C245.664 222.968 243.322 222.888 241 222.61C240.973 221.649 241.325 220.716 241.98 220.013C242.634 219.309 243.54 218.892 244.5 218.85C246.43 218.85 248 220.83 248 222.85Z" fill="#E94057"/>
<path d="M254 221.93C253 222.43 249.94 222.69 248 222.93C247.901 222.503 247.887 222.061 247.959 221.629C248.031 221.196 248.187 220.783 248.42 220.411C248.652 220.039 248.955 219.717 249.312 219.463C249.669 219.209 250.073 219.028 250.5 218.93C251.342 218.943 252.152 219.251 252.791 219.799C253.43 220.346 253.858 221.1 254 221.93V221.93Z" fill="#E94057"/>
<path d="M176.5 169.43H202.5V213.14C197.41 215.35 193.5 216.42 189.59 216.43C185.68 216.44 181.7 215.43 176.5 213.14V169.43Z" fill="#F27121" stroke="#212121" stroke-width="3" stroke-linecap="round" stroke-linejoin="round"/>
<mask id="path-8-inside-1" fill="white">
<path fill-rule="evenodd" clip-rule="evenodd" d="M231.253 59.7612C214.77 59.7612 201.408 46.3995 201.408 29.9169C201.408 13.4343 214.77 0.0725098 231.253 0.0725098C243.415 0.0725098 253.878 7.34764 258.528 17.7835C262.902 14.6426 268.266 12.7932 274.062 12.7932C288.789 12.7932 300.727 24.7312 300.727 39.4574C300.727 39.6234 300.725 39.7891 300.722 39.9544C311.8 41.6062 320.297 51.1591 320.297 62.6966C320.297 69.3224 317.494 75.2936 313.01 79.4898C319.367 82.7223 323.721 89.3249 323.721 96.9446C323.721 107.753 314.96 116.515 304.151 116.515C293.343 116.515 284.581 107.753 284.581 96.9446C284.581 92.0986 286.343 87.664 289.26 84.2461C281.555 81.3694 275.807 74.4784 274.56 66.1171C274.394 66.1201 274.228 66.1217 274.062 66.1217C264.065 66.1217 255.353 60.6201 250.789 52.4794C245.554 57.0161 238.724 59.7612 231.253 59.7612Z"/>
</mask>
<path fill-rule="evenodd" clip-rule="evenodd" d="M231.253 59.7612C214.77 59.7612 201.408 46.3995 201.408 29.9169C201.408 13.4343 214.77 0.0725098 231.253 0.0725098C243.415 0.0725098 253.878 7.34764 258.528 17.7835C262.902 14.6426 268.266 12.7932 274.062 12.7932C288.789 12.7932 300.727 24.7312 300.727 39.4574C300.727 39.6234 300.725 39.7891 300.722 39.9544C311.8 41.6062 320.297 51.1591 320.297 62.6966C320.297 69.3224 317.494 75.2936 313.01 79.4898C319.367 82.7223 323.721 89.3249 323.721 96.9446C323.721 107.753 314.96 116.515 304.151 116.515C293.343 116.515 284.581 107.753 284.581 96.9446C284.581 92.0986 286.343 87.664 289.26 84.2461C281.555 81.3694 275.807 74.4784 274.56 66.1171C274.394 66.1201 274.228 66.1217 274.062 66.1217C264.065 66.1217 255.353 60.6201 250.789 52.4794C245.554 57.0161 238.724 59.7612 231.253 59.7612Z" fill="#FF4760"/>
<path d="M258.528 17.7835L260.277 20.2204L257.286 22.3683L255.787 19.0044L258.528 17.7835ZM300.722 39.9544L300.28 42.9216L297.674 42.5331L297.723 39.8995L300.722 39.9544ZM313.01 79.4898L311.65 82.1638L307.835 80.2237L310.96 77.2993L313.01 79.4898ZM289.26 84.2461L290.309 81.4355L294.324 82.9344L291.542 86.1937L289.26 84.2461ZM274.56 66.1171L274.505 63.1176L277.138 63.0694L277.527 65.6746L274.56 66.1171ZM250.789 52.4794L248.824 50.2122L251.605 47.8018L253.405 51.0121L250.789 52.4794ZM204.408 29.9169C204.408 44.7426 216.427 56.7612 231.253 56.7612V62.7612C213.113 62.7612 198.408 48.0563 198.408 29.9169H204.408ZM231.253 3.07251C216.427 3.07251 204.408 15.0911 204.408 29.9169H198.408C198.408 11.7774 213.113 -2.92749 231.253 -2.92749V3.07251ZM255.787 19.0044C251.602 9.61111 242.188 3.07251 231.253 3.07251V-2.92749C244.642 -2.92749 256.154 5.08417 261.268 16.5626L255.787 19.0044ZM274.062 15.7932C268.915 15.7932 264.159 17.4335 260.277 20.2204L256.778 15.3466C261.645 11.8517 267.618 9.7932 274.062 9.7932V15.7932ZM297.727 39.4574C297.727 26.388 287.132 15.7932 274.062 15.7932V9.7932C290.445 9.7932 303.727 23.0743 303.727 39.4574H297.727ZM297.723 39.8995C297.725 39.7525 297.727 39.6052 297.727 39.4574H303.727C303.727 39.6417 303.725 39.8256 303.722 40.0092L297.723 39.8995ZM317.297 62.6966C317.297 52.667 309.909 44.3575 300.28 42.9216L301.165 36.9872C313.69 38.8549 323.297 49.6512 323.297 62.6966H317.297ZM310.96 77.2993C314.864 73.6466 317.297 68.4581 317.297 62.6966H323.297C323.297 70.1866 320.125 76.9405 315.06 81.6802L310.96 77.2993ZM320.721 96.9446C320.721 90.4973 317.04 84.9046 311.65 82.1638L314.37 76.8157C321.694 80.54 326.721 88.1525 326.721 96.9446H320.721ZM304.151 113.515C313.303 113.515 320.721 106.096 320.721 96.9446H326.721C326.721 109.41 316.616 119.515 304.151 119.515V113.515ZM287.581 96.9446C287.581 106.096 295 113.515 304.151 113.515V119.515C291.686 119.515 281.581 109.41 281.581 96.9446H287.581ZM291.542 86.1937C289.07 89.0891 287.581 92.8391 287.581 96.9446H281.581C281.581 91.3581 283.615 86.2389 286.978 82.2984L291.542 86.1937ZM277.527 65.6746C278.61 72.9361 283.607 78.9334 290.309 81.4355L288.211 87.0566C279.502 83.8054 273.003 76.0206 271.592 66.5596L277.527 65.6746ZM274.062 63.1217C274.21 63.1217 274.358 63.1203 274.505 63.1176L274.615 69.1166C274.431 69.12 274.247 69.1217 274.062 69.1217V63.1217ZM253.405 51.0121C257.461 58.2447 265.194 63.1217 274.062 63.1217V69.1217C262.937 69.1217 253.246 62.9954 248.172 53.9466L253.405 51.0121ZM231.253 56.7612C237.975 56.7612 244.114 54.2943 248.824 50.2122L252.753 54.7465C246.994 59.7378 239.473 62.7612 231.253 62.7612V56.7612Z" fill="#212121" mask="url(#path-8-inside-1)"/>
<path d="M172.48 214.43C171.68 214.21 171.02 214.01 170.53 213.86C170.562 212.035 170.96 210.236 171.7 208.568C172.44 206.9 173.508 205.398 174.84 204.15C177.807 201.627 181.608 200.3 185.5 200.43C188.807 200.41 192.032 201.462 194.69 203.43C196.355 204.659 197.734 206.234 198.731 208.046C199.729 209.859 200.322 211.866 200.47 213.93C193.7 216.75 186.18 216.74 180.17 215.93C177.577 215.599 175.008 215.098 172.48 214.43V214.43Z" fill="#F27121" stroke="#212121" stroke-width="3"/>
<path d="M181.85 214.53C178.834 214.466 175.847 213.926 173 212.93C173.224 211.746 173.904 210.698 174.894 210.012C175.883 209.325 177.103 209.055 178.29 209.26C179.461 209.487 180.493 210.17 181.16 211.158C181.828 212.146 182.076 213.359 181.85 214.53V214.53Z" fill="#E94057"/>
<path d="M189 214.85C186.664 214.968 184.322 214.888 182 214.61C181.973 213.649 182.325 212.716 182.98 212.013C183.634 211.309 184.54 210.892 185.5 210.85C187.43 210.85 189 212.83 189 214.85Z" fill="#E94057"/>
<path d="M195 213.93C194 214.43 190.94 214.69 189 214.93C188.901 214.503 188.887 214.061 188.959 213.629C189.031 213.196 189.187 212.783 189.42 212.411C189.652 212.039 189.955 211.717 190.312 211.463C190.669 211.209 191.073 211.028 191.5 210.93C192.342 210.943 193.152 211.251 193.791 211.799C194.43 212.346 194.858 213.1 195 213.93V213.93Z" fill="#E94057"/>
<path d="M291.5 142C295.09 142 298 139.09 298 135.5C298 131.91 295.09 129 291.5 129C287.91 129 285 131.91 285 135.5C285 139.09 287.91 142 291.5 142Z" fill="url(#paint1_radial)"/>
<path d="M324.65 181.02C327.61 181.02 330.01 178.62 330.01 175.66C330.01 172.7 327.61 170.3 324.65 170.3C321.69 170.3 319.29 172.7 319.29 175.66C319.29 178.62 321.69 181.02 324.65 181.02Z" fill="#FF4760" stroke="#212121" stroke-width="2"/>
<path d="M335.51 183.16C337.929 183.16 339.89 181.199 339.89 178.78C339.89 176.361 337.929 174.4 335.51 174.4C333.091 174.4 331.13 176.361 331.13 178.78C331.13 181.199 333.091 183.16 335.51 183.16Z" fill="#FF4760" stroke="#212121" stroke-width="2"/>
<path d="M345.1 184.36C347.116 184.36 348.75 182.726 348.75 180.71C348.75 178.694 347.116 177.06 345.1 177.06C343.084 177.06 341.45 178.694 341.45 180.71C341.45 182.726 343.084 184.36 345.1 184.36Z" fill="#FF4760" stroke="#212121" stroke-width="2"/>
<path fill-rule="evenodd" clip-rule="evenodd" d="M231.16 16.3501C228.9 16.5101 226.66 16.7401 224.45 17.0801C246 26.8301 266.49 38.1501 283 55.9301C288.78 62.7601 293.74 69.6001 298.88 76.2901C293.63 45.0201 263.82 23.5301 231.16 16.3501Z" fill="#FA8023"/>
<path fill-rule="evenodd" clip-rule="evenodd" d="M313.94 93.7199C313.94 73.1524 305.77 53.4272 291.226 38.8838C276.683 24.3403 256.958 16.1699 236.39 16.1699C234.63 16.1699 232.89 16.2399 231.16 16.3499C263.82 23.5299 293.63 45.0199 298.88 76.2899C303.507 82.4692 308.535 88.3385 313.93 93.8599C313.93 93.8099 313.94 93.7599 313.94 93.7199Z" fill="#F08023"/>
<path fill-rule="evenodd" clip-rule="evenodd" d="M323.72 152.93C323.743 139.738 319.006 126.981 310.38 117C312.732 109.515 313.929 101.716 313.93 93.8701C306.18 86.1001 300.09 77.8701 293.77 69.5801C304.07 103.95 304.95 139.58 320.66 171C322.69 165.192 323.725 159.083 323.72 152.93V152.93Z" fill="#F08023"/>
<path fill-rule="evenodd" clip-rule="evenodd" d="M231.3 204.72C241.08 205.72 250.5 206.47 258.3 206.97C270.234 209.263 282.592 207.548 293.45 202.09C341.12 207.7 349.92 192.09 349.92 192.09C350.176 191.826 350.41 191.542 350.62 191.24C342.948 194.971 334.531 196.916 326 196.93C294.3 199.14 262.6 200.28 231.3 204.72Z" fill="#F08023"/>
<path fill-rule="evenodd" clip-rule="evenodd" d="M352.2 186.13C352.09 183.72 350.55 181.55 346.2 181.29C340.87 180.98 330.61 178.35 323.46 176.29C323.95 177.16 324.46 178.04 324.97 178.91C324.45 178.04 323.97 177.16 323.46 176.29C321.79 175.81 320.3 175.37 319.07 175C319.65 173.68 320.16 172.34 320.63 171C305 139.54 304.07 103.93 293.77 69.5701C290.35 65.0501 286.86 60.4901 283 55.9301C266.49 38.1501 246 26.8301 224.45 17.0801C211.176 19.1627 198.67 24.6536 188.153 33.0161C177.636 41.3786 169.469 52.3266 164.45 64.7901C157.104 71.0187 152.402 79.8085 151.299 89.3763C150.196 98.9441 152.774 108.573 158.51 116.31C153.888 121.232 150.33 127.053 148.056 133.41C145.781 139.767 144.841 146.525 145.292 153.262C145.743 159.998 147.577 166.57 150.678 172.567C153.78 178.564 158.083 183.858 163.32 188.12C182.89 190.33 202.46 189.44 222.03 192.93C266.63 199.58 309.46 193.6 352.2 186.13Z" fill="#FF8023"/>
<path fill-rule="evenodd" clip-rule="evenodd" d="M222 192.93C202.43 189.44 182.86 190.33 163.29 188.12C171.247 194.61 181.041 198.437 191.29 199.06C203.08 201.45 217.56 203.33 231.29 204.72C262.59 200.28 294.29 199.14 325.99 196.93C334.516 196.904 342.927 194.948 350.59 191.21C351.652 189.731 352.213 187.951 352.19 186.13C309.46 193.6 266.63 199.58 222 192.93Z" fill="#FA8023"/>
<path d="M164.42 64.7899L165.81 65.3499L165.67 65.6899L165.39 65.9299L164.42 64.7899ZM310.42 116.99L309.29 117.99L308.74 117.36L308.99 116.56L310.42 116.99ZM319.14 174.99L318.71 176.42L317.09 175.93L317.77 174.38L319.14 174.99ZM346.27 181.26L346.36 179.76L346.27 181.26ZM349.94 192.03L348.63 191.29L348.73 191.11L348.88 190.97L349.94 192.03ZM293.47 202.03L292.8 200.69L293.2 200.49H293.65L293.47 202.03ZM258.27 206.93L258.37 205.44H258.47H258.56L258.27 206.93ZM191.27 199.02L191.36 197.52H191.47H191.57L191.27 199.02ZM158.45 116.27L159.65 115.38L160.4 116.38L159.54 117.3L158.45 116.27ZM236.36 17.6299C221.181 17.63 206.35 22.1703 193.772 30.667C181.195 39.1638 171.446 51.2285 165.78 65.3099L163 64.2299C168.887 49.5922 179.019 37.0506 192.092 28.2185C205.166 19.3865 220.583 14.6679 236.36 14.6699V17.6299ZM312.41 93.6799C312.41 73.5102 304.398 54.1666 290.135 39.9044C275.873 25.6423 256.53 17.6299 236.36 17.6299V14.6299C246.743 14.6233 257.025 16.6635 266.619 20.6338C276.213 24.6041 284.93 30.4267 292.271 37.7684C299.613 45.1102 305.436 53.8272 309.406 63.421C313.376 73.0148 315.417 83.2971 315.41 93.6799H312.41ZM309 116.54C311.317 109.155 312.494 101.46 312.49 93.7199H315.49C315.498 101.766 314.274 109.765 311.86 117.44L309 116.54ZM322.22 152.93C322.231 140.096 317.615 127.687 309.22 117.98L311.49 115.98C320.369 126.24 325.245 139.361 325.22 152.93H322.22ZM317.73 174.42C320.703 167.646 322.232 160.327 322.22 152.93H325.22C325.231 160.743 323.617 168.474 320.48 175.63L317.73 174.42ZM346.14 182.8C341.459 182.309 336.824 181.446 332.28 180.22C327.1 178.94 321.93 177.46 318.67 176.46L319.54 173.59C322.77 174.59 327.88 176.04 333 177.31C337.368 178.488 341.822 179.32 346.32 179.8L346.14 182.8ZM348.84 191.01C350.091 189.651 350.759 187.856 350.7 186.01C350.652 185.218 350.293 184.477 349.7 183.95C348.671 183.188 347.42 182.787 346.14 182.81L346.32 179.81C348.262 179.827 350.144 180.488 351.67 181.69C352.834 182.71 353.552 184.146 353.67 185.69C353.743 187.045 353.54 188.401 353.072 189.675C352.604 190.949 351.882 192.114 350.95 193.1L348.84 191.01ZM293.61 200.61C317.28 203.4 331.13 200.88 338.99 197.79C341.828 196.751 344.467 195.233 346.79 193.3C347.318 192.839 347.807 192.333 348.25 191.79C348.39 191.61 348.49 191.48 348.54 191.4V191.32L349.85 192.06L351.15 192.79V192.85L351.03 193.03C350.93 193.17 350.79 193.37 350.6 193.61C350.046 194.292 349.434 194.924 348.77 195.5C346.186 197.654 343.25 199.346 340.09 200.5C331.63 203.83 317.25 206.34 293.26 203.5L293.61 200.61ZM268.68 206.47C277.043 206.481 285.292 204.525 292.76 200.76L294.11 203.44C286.221 207.407 277.51 209.462 268.68 209.44V206.47ZM258.56 205.47C261.894 206.124 265.283 206.459 268.68 206.47V209.47C265.093 209.473 261.514 209.138 257.99 208.47L258.56 205.47ZM191.56 197.56C211.65 201.64 239.66 204.23 258.33 205.45L258.14 208.45C239.43 207.23 211.26 204.63 190.97 200.51L191.56 197.56ZM146.61 149.95C146.61 162.086 151.238 173.764 159.552 182.605C167.865 191.446 179.237 196.784 191.35 197.53L191.17 200.53C178.294 199.736 166.206 194.061 157.369 184.663C148.531 175.265 143.611 162.85 143.61 149.95H146.61ZM159.53 117.31C151.212 126.14 146.589 137.819 146.61 149.95H143.61C143.594 137.054 148.51 124.639 157.35 115.25L159.53 117.31ZM152.53 93.6899C152.516 101.506 155.028 109.117 159.69 115.39L157.29 117.18C152.237 110.392 149.515 102.152 149.53 93.6899H152.53ZM165.39 65.9299C161.35 69.3453 158.106 73.6019 155.883 78.4021C153.66 83.2022 152.512 88.43 152.52 93.7199H149.52C149.513 87.9944 150.756 82.3365 153.162 77.1411C155.568 71.9456 159.079 67.338 163.45 63.6399L165.39 65.9299Z" fill="#212121"/>
<path d="M174.5 159.93C174.5 152.371 177.503 145.122 182.847 139.777C188.192 134.433 195.441 131.43 203 131.43H207C210.743 131.43 214.449 132.167 217.906 133.599C221.364 135.032 224.506 137.131 227.153 139.777C229.799 142.424 231.898 145.566 233.331 149.023C234.763 152.481 235.5 156.187 235.5 159.93V190.82C235.521 192.748 234.933 194.634 233.82 196.209C232.707 197.784 231.125 198.967 229.3 199.59C227.88 200.06 226.48 200.5 225.3 200.84C224.493 201.092 223.667 201.279 222.83 201.4H222.44H221.55C220.81 201.4 219.83 201.29 218.64 201.2C216.27 201.01 213.12 200.75 209.57 200.43C202.47 199.81 193.8 199 186.7 198.33C183.362 198.014 180.261 196.462 178.007 193.98C175.752 191.498 174.505 188.263 174.51 184.91L174.5 159.93Z" fill="#E94057" stroke="#212121" stroke-width="3"/>
<path d="M177.5 146.43C186.5 150.43 210.2 157.03 233 151.43" stroke="#212121"/>
<path d="M175 165.43C184 169.43 212.2 176.03 235 170.43M175 182.43C184 186.43 212.2 193.03 235 187.43" stroke="#212121"/>
<path d="M227 77.9299C231.971 77.9299 236 73.9005 236 68.9299C236 63.9594 231.971 59.9299 227 59.9299C222.029 59.9299 218 63.9594 218 68.9299C218 73.9005 222.029 77.9299 227 77.9299Z" fill="#212121"/>
<path d="M223.15 72.1199C224.591 72.1199 225.76 70.9514 225.76 69.5099C225.76 68.0684 224.591 66.8999 223.15 66.8999C221.709 66.8999 220.54 68.0684 220.54 69.5099C220.54 70.9514 221.709 72.1199 223.15 72.1199Z" fill="white"/>
<path d="M224.89 66.3099C225.691 66.3099 226.34 65.6607 226.34 64.8599C226.34 64.0591 225.691 63.4099 224.89 63.4099C224.089 63.4099 223.44 64.0591 223.44 64.8599C223.44 65.6607 224.089 66.3099 224.89 66.3099Z" fill="white"/>
<path d="M188 71.9299C191.866 71.9299 195 68.7959 195 64.9299C195 61.0639 191.866 57.9299 188 57.9299C184.134 57.9299 181 61.0639 181 64.9299C181 68.7959 184.134 71.9299 188 71.9299Z" fill="#212121"/>
<path d="M185 67.4101C186.121 67.4101 187.03 66.5012 187.03 65.3801C187.03 64.259 186.121 63.3501 185 63.3501C183.879 63.3501 182.97 64.259 182.97 65.3801C182.97 66.5012 183.879 67.4101 185 67.4101Z" fill="white"/>
<path d="M186.36 62.8999C186.984 62.8999 187.49 62.394 187.49 61.7699C187.49 61.1458 186.984 60.6399 186.36 60.6399C185.736 60.6399 185.23 61.1458 185.23 61.7699C185.23 62.394 185.736 62.8999 186.36 62.8999Z" fill="white"/>
<path d="M232.23 105.7C239.526 105.7 245.44 99.7857 245.44 92.49C245.44 85.1943 239.526 79.28 232.23 79.28C224.934 79.28 219.02 85.1943 219.02 92.49C219.02 99.7857 224.934 105.7 232.23 105.7Z" fill="url(#paint2_radial)"/>
<path d="M166.18 90.54C171.587 90.54 175.97 86.1568 175.97 80.75C175.97 75.3431 171.587 70.96 166.18 70.96C160.773 70.96 156.39 75.3431 156.39 80.75C156.39 86.1568 160.773 90.54 166.18 90.54Z" fill="url(#paint3_radial)"/>
<path d="M196.52 84.67C197.602 84.67 198.48 83.7925 198.48 82.71C198.48 81.6275 197.602 80.75 196.52 80.75C195.438 80.75 194.56 81.6275 194.56 82.71C194.56 83.7925 195.438 84.67 196.52 84.67Z" fill="#212121"/>
<path d="M186 82.7C186.944 82.7 187.71 81.9344 187.71 80.99C187.71 80.0456 186.944 79.28 186 79.28C185.056 79.28 184.29 80.0456 184.29 80.99C184.29 81.9344 185.056 82.7 186 82.7Z" fill="#212121"/>
<path d="M270.81 84.46C271.773 83.3359 273.036 82.508 274.451 82.0722C275.865 81.6364 277.375 81.6107 278.804 81.9981C280.233 82.3854 281.523 83.1699 282.524 84.2605C283.525 85.3512 284.196 86.7033 284.46 88.1601C284.72 89.6132 284.563 91.1101 284.009 92.4782C283.455 93.8463 282.525 95.0298 281.327 95.8922C280.129 96.7547 278.711 97.2609 277.238 97.3525C275.765 97.4441 274.296 97.1174 273 96.4101" stroke="#212121" stroke-width="3" stroke-linecap="round" stroke-linejoin="round"/>
<path d="M277 85.9299C275.852 86.473 274.873 87.3183 274.168 88.3752C273.463 89.4322 273.06 90.661 273 91.9299" stroke="#212121" stroke-width="2" stroke-linecap="round" stroke-linejoin="round"/>
<path d="M273.56 89.8501C273.56 89.8501 274.79 91.3901 278 89.8501" stroke="#212121" stroke-width="2" stroke-linecap="round" stroke-linejoin="round"/>
<path d="M195 89.4299C194.17 93.0699 190.23 96.1799 186.59 95.3499C182.95 94.5199 181.67 91.0699 182.5 87.4299C182.5 87.4299 184 89.9299 188.4 87.4299C190 90.6899 195 89.4299 195 89.4299Z" fill="#212121"/>
<path d="M211.691 38.4998C215.197 36.6467 217.081 33.3316 215.899 31.0954C214.717 28.8591 210.917 28.5484 207.411 30.4015C203.905 32.2546 202.021 35.5697 203.203 37.806C204.385 40.0423 208.186 40.3529 211.691 38.4998Z" fill="#FFEDE1"/>
<path d="M200.217 43.7316C201.753 42.613 202.186 40.5916 201.184 39.2166C200.183 37.8417 198.126 37.6339 196.59 38.7525C195.055 39.871 194.622 41.8924 195.623 43.2674C196.625 44.6423 198.682 44.8502 200.217 43.7316Z" fill="#FFEDE1"/>
<defs>
<radialGradient id="paint0_radial" cx="0" cy="0" r="1" gradientUnits="userSpaceOnUse" gradientTransform="translate(234.5 207.94) rotate(90) scale(75.99 234.5)">
<stop stop-color="#C4C4C4" stop-opacity="0.5"/>
<stop offset="0.556134" stop-color="#C4C4C4" stop-opacity="0"/>
</radialGradient>
<radialGradient id="paint1_radial" cx="0" cy="0" r="1" gradientUnits="userSpaceOnUse" gradientTransform="translate(291.47 135.485) rotate(90) scale(6.5)">
<stop offset="0.51" stop-color="#FF4760"/>
<stop offset="1" stop-color="#FF8023"/>
</radialGradient>
<radialGradient id="paint2_radial" cx="0" cy="0" r="1" gradientUnits="userSpaceOnUse" gradientTransform="translate(232.23 92.49) rotate(90) scale(13.21)">
<stop stop-color="#FF4760"/>
<stop offset="1" stop-color="#FF8023"/>
</radialGradient>
<radialGradient id="paint3_radial" cx="0" cy="0" r="1" gradientUnits="userSpaceOnUse" gradientTransform="translate(166.18 80.75) rotate(90) scale(9.79)">
<stop stop-color="#FF4760"/>
<stop offset="1" stop-color="#FF8023"/>
</radialGradient>
</defs>
</svg>
