<svg width="75" height="75" viewBox="0 0 75 75" fill="none" xmlns="http://www.w3.org/2000/svg">
<path d="M64.0265 10.9735C56.682 3.62903 47.091 0 37.5 0C30.674 0 23.8479 1.81452 17.8859 5.52995C17.6267 5.61636 17.4539 5.70276 17.1947 5.78917C17.0219 5.87558 16.8491 6.04839 16.7627 6.2212C14.6889 7.60369 12.788 9.15899 10.9735 10.9735C9.15899 12.788 7.60369 14.6889 6.2212 16.7627C6.04839 16.9355 5.87558 17.0219 5.78917 17.1947C5.61636 17.3675 5.52995 17.6267 5.52995 17.8859C1.81452 23.8479 0 30.674 0 37.5C0 47.091 3.62903 56.682 10.9735 64.0265C18.318 71.371 27.909 75 37.5 75C47.091 75 56.682 71.371 64.0265 64.0265C71.371 56.682 75 47.091 75 37.5C75 27.909 71.371 18.318 64.0265 10.9735ZM14.1705 14.1705C15.3802 12.9608 16.5899 11.924 17.8859 10.9735L26.6993 24.28C26.2673 24.6256 25.8353 25.0576 25.4032 25.4032C24.9712 25.8353 24.6256 26.2673 24.28 26.6993L10.9735 17.8859C11.924 16.5899 12.9608 15.3802 14.1705 14.1705ZM28.6866 28.5138C31.106 26.0945 34.303 24.8848 37.5864 24.8848C40.7834 24.8848 43.9804 26.0945 46.4862 28.5138C48.9055 30.9332 50.1152 34.1302 50.1152 37.4136C50.0288 39.4873 49.5968 41.4747 48.5599 43.2892C48.3871 43.462 48.2143 43.5484 48.1279 43.8076C47.9551 44.0668 47.8687 44.326 47.7823 44.5853C47.3502 45.1901 46.9182 45.7949 46.3134 46.3134C45.7949 46.8318 45.1901 47.3502 44.5853 47.7823C44.326 47.8687 44.0668 47.9551 43.8076 48.1279C43.6348 48.3007 43.462 48.3871 43.2892 48.5599C41.4747 49.5104 39.4873 50.0288 37.5 50.0288C34.303 50.0288 31.106 48.8191 28.6002 46.3134C26.1809 43.894 24.9712 40.697 24.9712 37.4136C24.9712 34.2166 26.1809 31.0196 28.6866 28.5138ZM37.5 70.4205C29.0323 70.5069 20.6509 67.2235 14.1705 60.8295C7.69009 54.3491 4.49309 45.9677 4.49309 37.5C4.49309 32.0565 5.87558 26.6129 8.55415 21.6878L21.947 30.5876C20.9965 32.8341 20.4781 35.167 20.4781 37.5C20.4781 41.8203 22.1198 46.227 25.4896 49.5104C28.773 52.7938 33.1797 54.5219 37.5 54.5219C39.833 54.5219 42.1659 54.0035 44.4124 53.053L53.2258 66.4459C48.3007 69.1244 42.9436 70.4205 37.5 70.4205ZM60.8295 60.8295C59.6198 62.0392 58.4101 63.076 57.0276 64.1129L48.2143 50.72C48.6463 50.3744 49.0783 49.9424 49.5104 49.5104C49.9424 49.0783 50.288 48.6463 50.72 48.2143L64.0265 57.0276C63.076 58.3237 62.0392 59.6198 60.8295 60.8295ZM53.053 44.4124C54.0035 42.2523 54.5219 39.833 54.5219 37.5C54.5219 33.1797 52.8802 28.773 49.5104 25.4896C46.1406 22.1198 41.8203 20.4781 37.5 20.4781C35.167 20.4781 32.7477 20.9965 30.5876 21.947L21.6878 8.55415C26.6129 5.87558 32.0565 4.49309 37.5 4.49309C45.9677 4.49309 54.3491 7.69009 60.8295 14.1705C67.3099 20.6509 70.5069 29.0323 70.5069 37.5C70.5069 42.9436 69.1244 48.3871 66.4459 53.2258L53.053 44.4124Z" fill="url(#paint0_linear)"/>
<path d="M37.5 45.2765C39.4873 45.2765 41.4746 44.4988 43.0299 43.0299C44.5852 41.4746 45.2765 39.4873 45.2765 37.5C45.2765 35.5127 44.4988 33.5253 43.0299 31.97C41.4746 30.5012 39.4873 29.7235 37.5 29.7235C35.5127 29.7235 33.5253 30.5012 31.97 31.97C30.5012 33.5253 29.7235 35.5127 29.7235 37.5C29.7235 39.4873 30.5012 41.4746 31.97 43.0299C33.5253 44.5852 35.5127 45.2765 37.5 45.2765ZM35.1671 35.1671C35.7719 34.5622 36.6359 34.2166 37.5 34.2166C38.3641 34.2166 39.2281 34.5622 39.8329 35.1671C40.4378 35.7719 40.7834 36.6359 40.7834 37.5C40.7834 38.3641 40.4378 39.2281 39.8329 39.8329C39.2281 40.4378 38.3641 40.7834 37.5 40.7834C36.6359 40.7834 35.7719 40.4378 35.1671 39.8329C34.5622 39.2281 34.2166 38.3641 34.2166 37.5C34.2166 36.6359 34.5622 35.7719 35.1671 35.1671Z" fill="url(#paint1_linear)"/>
<defs>
<linearGradient id="paint0_linear" x1="2.79397e-07" y1="37.5" x2="75" y2="37.5" gradientUnits="userSpaceOnUse">
<stop stop-color="#E94057"/>
<stop offset="1" stop-color="#F27121"/>
</linearGradient>
<linearGradient id="paint1_linear" x1="29.7235" y1="37.5" x2="45.2765" y2="37.5" gradientUnits="userSpaceOnUse">
<stop stop-color="#E94057"/>
<stop offset="1" stop-color="#F27121"/>
</linearGradient>
</defs>
</svg>
