<svg width="300" height="300" viewBox="0 0 300 300" fill="none" xmlns="http://www.w3.org/2000/svg">
<g filter="url(#filter0_d)">
<circle cx="140" cy="140" r="100" fill="url(#paint0_linear)"/>
</g>
<path d="M90.4062 158.562V174H79.4375V128.5H97.5938C101.073 128.5 104.146 129.146 106.812 130.438C109.5 131.708 111.573 133.531 113.031 135.906C114.51 138.26 115.25 140.938 115.25 143.938C115.25 148.375 113.656 151.927 110.469 154.594C107.302 157.24 102.948 158.562 97.4062 158.562H90.4062ZM90.4062 150.094H97.5938C99.7188 150.094 101.333 149.562 102.438 148.5C103.562 147.438 104.125 145.938 104.125 144C104.125 141.875 103.552 140.177 102.406 138.906C101.26 137.635 99.6979 136.99 97.7188 136.969H90.4062V150.094ZM138.031 157.938H132.094V174H121.125V128.5H139.031C144.427 128.5 148.646 129.698 151.688 132.094C154.729 134.49 156.25 137.875 156.25 142.25C156.25 145.417 155.604 148.042 154.312 150.125C153.042 152.208 151.042 153.896 148.312 155.188L157.812 173.531V174H146.062L138.031 157.938ZM132.094 149.469H139.031C141.115 149.469 142.677 148.927 143.719 147.844C144.781 146.74 145.312 145.208 145.312 143.25C145.312 141.292 144.781 139.76 143.719 138.656C142.656 137.531 141.094 136.969 139.031 136.969H132.094V149.469ZM201.406 152.188C201.406 156.625 200.583 160.552 198.938 163.969C197.292 167.385 194.948 170.021 191.906 171.875C188.885 173.708 185.438 174.625 181.562 174.625C177.688 174.625 174.25 173.74 171.25 171.969C168.25 170.177 165.906 167.625 164.219 164.312C162.552 161 161.677 157.198 161.594 152.906V150.344C161.594 145.885 162.406 141.958 164.031 138.562C165.677 135.146 168.021 132.51 171.062 130.656C174.125 128.802 177.604 127.875 181.5 127.875C185.354 127.875 188.792 128.792 191.812 130.625C194.833 132.458 197.177 135.073 198.844 138.469C200.531 141.844 201.385 145.719 201.406 150.094V152.188ZM190.25 150.281C190.25 145.76 189.49 142.333 187.969 140C186.469 137.646 184.312 136.469 181.5 136.469C176 136.469 173.094 140.594 172.781 148.844L172.75 152.188C172.75 156.646 173.49 160.073 174.969 162.469C176.448 164.865 178.646 166.062 181.562 166.062C184.333 166.062 186.469 164.885 187.969 162.531C189.469 160.177 190.229 156.792 190.25 152.375V150.281Z" fill="white"/>
<path d="M112.707 112V100.996H110.703V99.3203H112.707V98.0195C112.707 96.6602 113.07 95.6094 113.797 94.8672C114.523 94.125 115.551 93.7539 116.879 93.7539C117.379 93.7539 117.875 93.8203 118.367 93.9531L118.25 95.7109C117.883 95.6406 117.492 95.6055 117.078 95.6055C116.375 95.6055 115.832 95.8125 115.449 96.2266C115.066 96.6328 114.875 97.2188 114.875 97.9844V99.3203H117.582V100.996H114.875V112H112.707ZM131.753 101.266C131.425 101.211 131.07 101.184 130.687 101.184C129.265 101.184 128.3 101.789 127.792 103V112H125.624V99.3203H127.734L127.769 100.785C128.48 99.6523 129.488 99.0859 130.792 99.0859C131.214 99.0859 131.535 99.1406 131.753 99.25V101.266ZM144.425 112.234C142.706 112.234 141.307 111.672 140.229 110.547C139.151 109.414 138.612 107.902 138.612 106.012V105.613C138.612 104.355 138.85 103.234 139.327 102.25C139.811 101.258 140.483 100.484 141.342 99.9297C142.21 99.3672 143.147 99.0859 144.155 99.0859C145.803 99.0859 147.085 99.6289 147.999 100.715C148.913 101.801 149.37 103.355 149.37 105.379V106.281H140.78C140.811 107.531 141.175 108.543 141.87 109.316C142.573 110.082 143.464 110.465 144.542 110.465C145.307 110.465 145.956 110.309 146.487 109.996C147.018 109.684 147.483 109.27 147.882 108.754L149.206 109.785C148.143 111.418 146.55 112.234 144.425 112.234ZM144.155 100.867C143.28 100.867 142.546 101.188 141.952 101.828C141.358 102.461 140.991 103.352 140.85 104.5H147.202V104.336C147.139 103.234 146.842 102.383 146.311 101.781C145.78 101.172 145.061 100.867 144.155 100.867ZM162.791 112.234C161.072 112.234 159.674 111.672 158.596 110.547C157.518 109.414 156.979 107.902 156.979 106.012V105.613C156.979 104.355 157.217 103.234 157.693 102.25C158.178 101.258 158.85 100.484 159.709 99.9297C160.576 99.3672 161.514 99.0859 162.522 99.0859C164.17 99.0859 165.451 99.6289 166.365 100.715C167.279 101.801 167.736 103.355 167.736 105.379V106.281H159.147C159.178 107.531 159.541 108.543 160.236 109.316C160.94 110.082 161.83 110.465 162.908 110.465C163.674 110.465 164.322 110.309 164.854 109.996C165.385 109.684 165.85 109.27 166.248 108.754L167.572 109.785C166.51 111.418 164.916 112.234 162.791 112.234ZM162.522 100.867C161.647 100.867 160.912 101.188 160.318 101.828C159.725 102.461 159.357 103.352 159.217 104.5H165.568V104.336C165.506 103.234 165.209 102.383 164.678 101.781C164.147 101.172 163.428 100.867 162.522 100.867Z" fill="white"/>
<defs>
<filter id="filter0_d" x="0" y="0" width="300" height="300" filterUnits="userSpaceOnUse" color-interpolation-filters="sRGB">
<feFlood flood-opacity="0" result="BackgroundImageFix"/>
<feColorMatrix in="SourceAlpha" type="matrix" values="0 0 0 0 0 0 0 0 0 0 0 0 0 0 0 0 0 0 127 0"/>
<feOffset dx="10" dy="10"/>
<feGaussianBlur stdDeviation="25"/>
<feColorMatrix type="matrix" values="0 0 0 0 1 0 0 0 0 1 0 0 0 0 1 0 0 0 0.25 0"/>
<feBlend mode="normal" in2="BackgroundImageFix" result="effect1_dropShadow"/>
<feBlend mode="normal" in="SourceGraphic" in2="effect1_dropShadow" result="shape"/>
</filter>
<linearGradient id="paint0_linear" x1="40" y1="140" x2="240" y2="140" gradientUnits="userSpaceOnUse">
<stop stop-color="#E94057"/>
<stop offset="1" stop-color="#F27121"/>
</linearGradient>
</defs>
</svg>
