<svg width="75" height="58" viewBox="0 0 75 58" fill="none" xmlns="http://www.w3.org/2000/svg">
<path d="M24.1347 0.939617H22.5144C21.3204 0.939617 20.2971 1.96465 20.2971 3.16053V3.24595H16.5447C16.3741 2.39175 16.033 1.70839 15.436 1.11046C14.7537 0.427098 13.7304 0 12.707 0H3.83768C2.72902 0 1.79092 0.427098 1.10866 1.11046C0.426409 1.79381 0 2.81885 0 3.84389V34.6804C0 35.7909 0.426409 36.7305 1.10866 37.4138C1.79092 38.0972 2.8143 38.5243 3.83768 38.5243H6.05501V55.7791C6.05501 56.975 7.07839 58 8.27233 58C9.46628 58 10.4897 56.975 10.4897 55.7791V38.6097H12.707C13.8156 38.6097 14.7537 38.1826 15.436 37.4993C16.1183 36.8159 16.5447 35.7909 16.5447 34.7658V21.6966H20.2118V21.782C20.2118 22.9779 21.2352 24.003 22.4291 24.003H24.0495C27.1196 24.003 29.9339 22.7217 31.9807 20.6716C34.0274 18.6215 35.3067 15.8027 35.3067 12.7275V12.215C35.3067 9.13991 34.0274 6.32106 31.9807 4.27099C30.0192 2.2207 27.2049 0.939617 24.1347 0.939617ZM12.11 6.57732V18.3652V34.1679H4.34937V4.44183H12.11V6.57732ZM20.2971 17.2548H16.6299V7.68778H20.2971V17.2548ZM30.9573 12.7275C30.9573 14.6068 30.1898 16.3152 28.9105 17.5965C27.8019 18.7069 26.3521 19.4757 24.6464 19.5611V18.3652V6.57732V5.38144C26.2668 5.55228 27.8019 6.23564 28.9105 7.3461C30.1898 8.62739 30.9573 10.3358 30.9573 12.215V12.7275Z" fill="url(#paint0_linear)"/>
<path d="M73.9393 1.11046C73.257 0.427098 72.2337 0 71.2103 0H62.341C61.2323 0 60.2942 0.427098 59.612 1.11046C59.015 1.70839 58.6739 2.39175 58.5033 3.24595H54.7509V3.16053C54.7509 1.96465 53.7275 0.939617 52.5336 0.939617H50.9132C47.8431 0.939617 45.0288 2.22091 42.982 4.27099C40.9353 6.32106 39.656 9.13991 39.656 12.215V12.7275C39.656 15.8027 40.9353 18.6215 42.982 20.6716C45.0288 22.7217 47.8431 24.003 50.9132 24.003H52.5336C53.7275 24.003 54.7509 22.9779 54.7509 21.782V21.6966H58.418V34.6804C58.418 35.7909 58.8444 36.7305 59.5267 37.4138C60.2089 38.0972 61.2323 38.5243 62.2557 38.5243H64.473V55.7791C64.473 56.975 65.4964 58 66.6903 58C67.8843 58 68.9077 56.975 68.9077 55.7791V38.6097H71.125C72.2337 38.6097 73.1718 38.1826 73.854 37.4993C74.5363 36.8159 74.9627 35.7909 74.9627 34.7658V3.84389C75.1332 2.81885 74.7068 1.7936 73.9393 1.11046ZM50.3163 6.57732V18.3652V19.5611C48.6959 19.3903 47.1608 18.7069 46.0522 17.5965C44.7729 16.3152 44.0054 14.6068 44.0054 12.7275V12.215C44.0054 10.3358 44.7729 8.62739 46.0522 7.3461C47.1608 6.23564 48.6106 5.46686 50.3163 5.38144V6.57732ZM58.418 17.2548H54.7509V7.68778H58.418V17.2548ZM70.6986 34.1679H62.938V18.3652V6.57732V4.44183H70.6986V34.1679Z" fill="url(#paint1_linear)"/>
<defs>
<linearGradient id="paint0_linear" x1="1.31528e-07" y1="29" x2="35.3067" y2="29" gradientUnits="userSpaceOnUse">
<stop stop-color="#E94057"/>
<stop offset="1" stop-color="#F27121"/>
</linearGradient>
<linearGradient id="paint1_linear" x1="39.656" y1="29" x2="75" y2="29" gradientUnits="userSpaceOnUse">
<stop stop-color="#E94057"/>
<stop offset="1" stop-color="#F27121"/>
</linearGradient>
</defs>
</svg>
