<svg width="448" height="69" viewBox="0 0 448 69" fill="none" xmlns="http://www.w3.org/2000/svg">
<mask id="path-1-outside-1" maskUnits="userSpaceOnUse" x="0" y="0" width="448" height="69" fill="black">
<rect fill="white" width="448" height="69"/>
<path d="M59.8336 62.2112V66H3V62.2112H11.5075V4.40979H25.1897V53.7524H51.3261V62.2112H59.8336Z"/>
<path d="M82.581 62.2112V66H53.8134V62.2112H61.3561V4.40979H75.0383V62.2112H82.581Z"/>
<path d="M138.549 62.2112V66H82.592V62.2112H94.52C91.3041 60.5664 88.3806 58.4518 85.7494 55.8671L93.9061 45.8224C100.513 51.6378 106.623 54.5455 112.237 54.5455C114.751 54.5455 116.71 54.0168 118.113 52.9594C119.575 51.8434 120.306 50.3748 120.306 48.5539C120.306 46.6741 119.546 45.2056 118.025 44.1483C116.505 43.0322 113.494 41.9161 108.992 40.8C101.858 39.0965 96.625 36.8937 93.2921 34.1916C90.0178 31.4308 88.3806 27.1427 88.3806 21.3273C88.3806 15.4531 90.4563 10.9301 94.6077 7.75804C98.8176 4.58601 104.051 3 110.307 3C114.4 3 118.493 3.70489 122.586 5.11468C126.679 6.52447 130.246 8.52168 133.286 11.1063L126.357 21.1511C121.037 17.0979 115.54 15.0713 109.869 15.0713C107.588 15.0713 105.776 15.6294 104.431 16.7455C103.144 17.8028 102.501 19.242 102.501 21.0629C102.501 22.8252 103.291 24.235 104.869 25.2923C106.507 26.3497 110.219 27.6126 116.008 29.0811C121.855 30.4909 126.387 32.635 129.602 35.5133C132.818 38.3916 134.426 42.386 134.426 47.4965C134.426 53.8406 132.058 58.7455 127.322 62.2112H138.549Z"/>
<path d="M191.847 62.2112V66H138.522V62.2112H158.343V16.3049H140.978V4.40979H189.391V16.3049H172.026V62.2112H191.847Z"/>
<path d="M199.425 62.2112V4.40979H243.629V16.6573H213.107V29.3455H240.559V41.0643H213.107V53.8406H244.593V62.2112H253.101V66H190.917V62.2112H199.425Z"/>
<path d="M256.811 62.2112V4.40979H269.616L299.699 44.0601V4.40979H313.381V62.2112H321.889V66H299.699L270.493 27.407V66H248.303V62.2112H256.811Z"/>
<path d="M328.5 62.2112V4.40979H372.704V16.6573H342.182V29.3455H369.634V41.0643H342.182V53.8406H373.669V62.2112H382.176V66H319.993V62.2112H328.5Z"/>
<path d="M385.886 62.2112V4.40979H409.128C418.659 4.40979 425.442 6.02517 429.476 9.25594C433.569 12.4867 435.615 17.6853 435.615 24.8518C435.615 34.7203 431.727 41.0937 423.951 43.972L436.756 62.2112H445V66H422.635L409.04 46.3511H399.568V66H377.379V62.2112H385.886ZM409.567 34.4559C414.244 34.4559 417.431 33.6923 419.127 32.165C420.822 30.6378 421.67 28.2294 421.67 24.9399C421.67 21.5916 420.793 19.3007 419.039 18.0671C417.285 16.8336 414.215 16.2168 409.83 16.2168H399.568V34.4559H409.567Z"/>
</mask>
<path d="M59.8336 62.2112V66H3V62.2112H11.5075V4.40979H25.1897V53.7524H51.3261V62.2112H59.8336Z" stroke="url(#paint0_linear)" stroke-width="6" mask="url(#path-1-outside-1)"/>
<path d="M82.581 62.2112V66H53.8134V62.2112H61.3561V4.40979H75.0383V62.2112H82.581Z" stroke="url(#paint1_linear)" stroke-width="6" mask="url(#path-1-outside-1)"/>
<path d="M138.549 62.2112V66H82.592V62.2112H94.52C91.3041 60.5664 88.3806 58.4518 85.7494 55.8671L93.9061 45.8224C100.513 51.6378 106.623 54.5455 112.237 54.5455C114.751 54.5455 116.71 54.0168 118.113 52.9594C119.575 51.8434 120.306 50.3748 120.306 48.5539C120.306 46.6741 119.546 45.2056 118.025 44.1483C116.505 43.0322 113.494 41.9161 108.992 40.8C101.858 39.0965 96.625 36.8937 93.2921 34.1916C90.0178 31.4308 88.3806 27.1427 88.3806 21.3273C88.3806 15.4531 90.4563 10.9301 94.6077 7.75804C98.8176 4.58601 104.051 3 110.307 3C114.4 3 118.493 3.70489 122.586 5.11468C126.679 6.52447 130.246 8.52168 133.286 11.1063L126.357 21.1511C121.037 17.0979 115.54 15.0713 109.869 15.0713C107.588 15.0713 105.776 15.6294 104.431 16.7455C103.144 17.8028 102.501 19.242 102.501 21.0629C102.501 22.8252 103.291 24.235 104.869 25.2923C106.507 26.3497 110.219 27.6126 116.008 29.0811C121.855 30.4909 126.387 32.635 129.602 35.5133C132.818 38.3916 134.426 42.386 134.426 47.4965C134.426 53.8406 132.058 58.7455 127.322 62.2112H138.549Z" stroke="url(#paint2_linear)" stroke-width="6" mask="url(#path-1-outside-1)"/>
<path d="M191.847 62.2112V66H138.522V62.2112H158.343V16.3049H140.978V4.40979H189.391V16.3049H172.026V62.2112H191.847Z" stroke="url(#paint3_linear)" stroke-width="6" mask="url(#path-1-outside-1)"/>
<path d="M199.425 62.2112V4.40979H243.629V16.6573H213.107V29.3455H240.559V41.0643H213.107V53.8406H244.593V62.2112H253.101V66H190.917V62.2112H199.425Z" stroke="url(#paint4_linear)" stroke-width="6" mask="url(#path-1-outside-1)"/>
<path d="M256.811 62.2112V4.40979H269.616L299.699 44.0601V4.40979H313.381V62.2112H321.889V66H299.699L270.493 27.407V66H248.303V62.2112H256.811Z" stroke="url(#paint5_linear)" stroke-width="6" mask="url(#path-1-outside-1)"/>
<path d="M328.5 62.2112V4.40979H372.704V16.6573H342.182V29.3455H369.634V41.0643H342.182V53.8406H373.669V62.2112H382.176V66H319.993V62.2112H328.5Z" stroke="url(#paint6_linear)" stroke-width="6" mask="url(#path-1-outside-1)"/>
<path d="M385.886 62.2112V4.40979H409.128C418.659 4.40979 425.442 6.02517 429.476 9.25594C433.569 12.4867 435.615 17.6853 435.615 24.8518C435.615 34.7203 431.727 41.0937 423.951 43.972L436.756 62.2112H445V66H422.635L409.04 46.3511H399.568V66H377.379V62.2112H385.886ZM409.567 34.4559C414.244 34.4559 417.431 33.6923 419.127 32.165C420.822 30.6378 421.67 28.2294 421.67 24.9399C421.67 21.5916 420.793 19.3007 419.039 18.0671C417.285 16.8336 414.215 16.2168 409.83 16.2168H399.568V34.4559H409.567Z" stroke="url(#paint7_linear)" stroke-width="6" mask="url(#path-1-outside-1)"/>
<defs>
<linearGradient id="paint0_linear" x1="3" y1="34.5" x2="445" y2="34.5" gradientUnits="userSpaceOnUse">
<stop stop-color="#E94057"/>
<stop offset="1" stop-color="#F27121"/>
</linearGradient>
<linearGradient id="paint1_linear" x1="3" y1="34.5" x2="445" y2="34.5" gradientUnits="userSpaceOnUse">
<stop stop-color="#E94057"/>
<stop offset="1" stop-color="#F27121"/>
</linearGradient>
<linearGradient id="paint2_linear" x1="3" y1="34.5" x2="445" y2="34.5" gradientUnits="userSpaceOnUse">
<stop stop-color="#E94057"/>
<stop offset="1" stop-color="#F27121"/>
</linearGradient>
<linearGradient id="paint3_linear" x1="3" y1="34.5" x2="445" y2="34.5" gradientUnits="userSpaceOnUse">
<stop stop-color="#E94057"/>
<stop offset="1" stop-color="#F27121"/>
</linearGradient>
<linearGradient id="paint4_linear" x1="3" y1="34.5" x2="445" y2="34.5" gradientUnits="userSpaceOnUse">
<stop stop-color="#E94057"/>
<stop offset="1" stop-color="#F27121"/>
</linearGradient>
<linearGradient id="paint5_linear" x1="3" y1="34.5" x2="445" y2="34.5" gradientUnits="userSpaceOnUse">
<stop stop-color="#E94057"/>
<stop offset="1" stop-color="#F27121"/>
</linearGradient>
<linearGradient id="paint6_linear" x1="3" y1="34.5" x2="445" y2="34.5" gradientUnits="userSpaceOnUse">
<stop stop-color="#E94057"/>
<stop offset="1" stop-color="#F27121"/>
</linearGradient>
<linearGradient id="paint7_linear" x1="3" y1="34.5" x2="445" y2="34.5" gradientUnits="userSpaceOnUse">
<stop stop-color="#E94057"/>
<stop offset="1" stop-color="#F27121"/>
</linearGradient>
</defs>
</svg>
