<svg width="77" height="33" viewBox="0 0 77 33" fill="none" xmlns="http://www.w3.org/2000/svg">
<circle cx="17.6356" cy="5.75566" r="5.4376" transform="rotate(-3.45746 17.6356 5.75566)" fill="#E94057"/>
<circle cx="9.93935" cy="7.29929" r="4.40187" transform="rotate(-3.45746 9.93935 7.29929)" fill="#E94057"/>
<circle cx="4.88302" cy="11.4831" r="3.36613" transform="rotate(-3.45746 4.88302 11.4831)" fill="#E94057"/>
<circle cx="3.0422" cy="16.2422" r="2.8741" transform="rotate(-3.45746 3.0422 16.2422)" fill="#E94057"/>
<circle cx="16.6797" cy="18.2408" r="14.7592" fill="#FF8023"/>
<mask id="path-6-outside-1" maskUnits="userSpaceOnUse" x="12" y="13" width="65" height="11" fill="black">
<rect fill="white" x="12" y="13" width="65" height="11"/>
<path d="M21.1007 22.4587V23H13V22.4587H14.2126V14.2014H16.1628V21.2503H19.8881V22.4587H21.1007Z"/>
<path d="M24.343 22.4587V23H20.2426V22.4587H21.3177V14.2014H23.2679V22.4587H24.343Z"/>
<path d="M32.3203 22.4587V23H24.3446V22.4587H26.0447C25.5863 22.2238 25.1696 21.9217 24.7946 21.5524L25.9572 20.1175C26.899 20.9483 27.7699 21.3636 28.5699 21.3636C28.9283 21.3636 29.2075 21.2881 29.4075 21.1371C29.6159 20.9776 29.72 20.7678 29.72 20.5077C29.72 20.2392 29.6117 20.0294 29.395 19.8783C29.1783 19.7189 28.7491 19.5594 28.1074 19.4C27.0906 19.1566 26.3447 18.842 25.8697 18.4559C25.403 18.0615 25.1696 17.449 25.1696 16.6182C25.1696 15.779 25.4655 15.1329 26.0572 14.6797C26.6573 14.2266 27.4032 14 28.2949 14C28.8783 14 29.4617 14.1007 30.0451 14.3021C30.6284 14.5035 31.1368 14.7888 31.5702 15.158L30.5826 16.593C29.8242 16.014 29.0408 15.7245 28.2324 15.7245C27.9074 15.7245 27.649 15.8042 27.4573 15.9636C27.274 16.1147 27.1823 16.3203 27.1823 16.5804C27.1823 16.8322 27.2948 17.0336 27.5198 17.1846C27.7532 17.3357 28.2824 17.5161 29.1075 17.7259C29.9409 17.9273 30.5868 18.2336 31.0452 18.6448C31.5035 19.0559 31.7327 19.6266 31.7327 20.3566C31.7327 21.2629 31.3952 21.9636 30.7201 22.4587H32.3203Z"/>
<path d="M39.9171 22.4587V23H32.3165V22.4587H35.1417V15.9007H32.6665V14.2014H39.5671V15.9007H37.0919V22.4587H39.9171Z"/>
<path d="M40.9972 22.4587V14.2014H47.2978V15.951H42.9474V17.7636H46.8602V19.4378H42.9474V21.2629H47.4353V22.4587H48.6479V23H39.7846V22.4587H40.9972Z"/>
<path d="M49.1766 22.4587V14.2014H51.0018L55.2897 19.8657V14.2014H57.2398V22.4587H58.4525V23H55.2897L51.1268 17.4867V23H47.964V22.4587H49.1766Z"/>
<path d="M59.3948 22.4587V14.2014H65.6954V15.951H61.345V17.7636H65.2578V19.4378H61.345V21.2629H65.8329V22.4587H67.0455V23H58.1822V22.4587H59.3948Z"/>
<path d="M67.5743 22.4587V14.2014H70.8871C72.2455 14.2014 73.2123 14.4322 73.7873 14.8937C74.3707 15.3552 74.6624 16.0979 74.6624 17.1217C74.6624 18.5315 74.1082 19.442 72.9997 19.8531L74.8249 22.4587H76V23H72.8122L70.8745 20.193H69.5244V23H66.3617V22.4587H67.5743ZM70.9496 18.4937C71.6163 18.4937 72.0705 18.3846 72.3122 18.1664C72.5539 17.9483 72.6747 17.6042 72.6747 17.1343C72.6747 16.6559 72.5497 16.3287 72.2997 16.1524C72.0497 15.9762 71.6121 15.8881 70.9871 15.8881H69.5244V18.4937H70.9496Z"/>
</mask>
<path d="M21.1007 22.4587V23H13V22.4587H14.2126V14.2014H16.1628V21.2503H19.8881V22.4587H21.1007Z" fill="#333333"/>
<path d="M24.343 22.4587V23H20.2426V22.4587H21.3177V14.2014H23.2679V22.4587H24.343Z" fill="#333333"/>
<path d="M32.3203 22.4587V23H24.3446V22.4587H26.0447C25.5863 22.2238 25.1696 21.9217 24.7946 21.5524L25.9572 20.1175C26.899 20.9483 27.7699 21.3636 28.5699 21.3636C28.9283 21.3636 29.2075 21.2881 29.4075 21.1371C29.6159 20.9776 29.72 20.7678 29.72 20.5077C29.72 20.2392 29.6117 20.0294 29.395 19.8783C29.1783 19.7189 28.7491 19.5594 28.1074 19.4C27.0906 19.1566 26.3447 18.842 25.8697 18.4559C25.403 18.0615 25.1696 17.449 25.1696 16.6182C25.1696 15.779 25.4655 15.1329 26.0572 14.6797C26.6573 14.2266 27.4032 14 28.2949 14C28.8783 14 29.4617 14.1007 30.0451 14.3021C30.6284 14.5035 31.1368 14.7888 31.5702 15.158L30.5826 16.593C29.8242 16.014 29.0408 15.7245 28.2324 15.7245C27.9074 15.7245 27.649 15.8042 27.4573 15.9636C27.274 16.1147 27.1823 16.3203 27.1823 16.5804C27.1823 16.8322 27.2948 17.0336 27.5198 17.1846C27.7532 17.3357 28.2824 17.5161 29.1075 17.7259C29.9409 17.9273 30.5868 18.2336 31.0452 18.6448C31.5035 19.0559 31.7327 19.6266 31.7327 20.3566C31.7327 21.2629 31.3952 21.9636 30.7201 22.4587H32.3203Z" fill="#333333"/>
<path d="M39.9171 22.4587V23H32.3165V22.4587H35.1417V15.9007H32.6665V14.2014H39.5671V15.9007H37.0919V22.4587H39.9171Z" fill="#333333"/>
<path d="M40.9972 22.4587V14.2014H47.2978V15.951H42.9474V17.7636H46.8602V19.4378H42.9474V21.2629H47.4353V22.4587H48.6479V23H39.7846V22.4587H40.9972Z" fill="#333333"/>
<path d="M49.1766 22.4587V14.2014H51.0018L55.2897 19.8657V14.2014H57.2398V22.4587H58.4525V23H55.2897L51.1268 17.4867V23H47.964V22.4587H49.1766Z" fill="#333333"/>
<path d="M59.3948 22.4587V14.2014H65.6954V15.951H61.345V17.7636H65.2578V19.4378H61.345V21.2629H65.8329V22.4587H67.0455V23H58.1822V22.4587H59.3948Z" fill="#333333"/>
<path d="M67.5743 22.4587V14.2014H70.8871C72.2455 14.2014 73.2123 14.4322 73.7873 14.8937C74.3707 15.3552 74.6624 16.0979 74.6624 17.1217C74.6624 18.5315 74.1082 19.442 72.9997 19.8531L74.8249 22.4587H76V23H72.8122L70.8745 20.193H69.5244V23H66.3617V22.4587H67.5743ZM70.9496 18.4937C71.6163 18.4937 72.0705 18.3846 72.3122 18.1664C72.5539 17.9483 72.6747 17.6042 72.6747 17.1343C72.6747 16.6559 72.5497 16.3287 72.2997 16.1524C72.0497 15.9762 71.6121 15.8881 70.9871 15.8881H69.5244V18.4937H70.9496Z" fill="#333333"/>
<path d="M21.1007 22.4587V23H13V22.4587H14.2126V14.2014H16.1628V21.2503H19.8881V22.4587H21.1007Z" stroke="url(#paint0_linear)" stroke-width="2" mask="url(#path-6-outside-1)"/>
<path d="M24.343 22.4587V23H20.2426V22.4587H21.3177V14.2014H23.2679V22.4587H24.343Z" stroke="url(#paint1_linear)" stroke-width="2" mask="url(#path-6-outside-1)"/>
<path d="M32.3203 22.4587V23H24.3446V22.4587H26.0447C25.5863 22.2238 25.1696 21.9217 24.7946 21.5524L25.9572 20.1175C26.899 20.9483 27.7699 21.3636 28.5699 21.3636C28.9283 21.3636 29.2075 21.2881 29.4075 21.1371C29.6159 20.9776 29.72 20.7678 29.72 20.5077C29.72 20.2392 29.6117 20.0294 29.395 19.8783C29.1783 19.7189 28.7491 19.5594 28.1074 19.4C27.0906 19.1566 26.3447 18.842 25.8697 18.4559C25.403 18.0615 25.1696 17.449 25.1696 16.6182C25.1696 15.779 25.4655 15.1329 26.0572 14.6797C26.6573 14.2266 27.4032 14 28.2949 14C28.8783 14 29.4617 14.1007 30.0451 14.3021C30.6284 14.5035 31.1368 14.7888 31.5702 15.158L30.5826 16.593C29.8242 16.014 29.0408 15.7245 28.2324 15.7245C27.9074 15.7245 27.649 15.8042 27.4573 15.9636C27.274 16.1147 27.1823 16.3203 27.1823 16.5804C27.1823 16.8322 27.2948 17.0336 27.5198 17.1846C27.7532 17.3357 28.2824 17.5161 29.1075 17.7259C29.9409 17.9273 30.5868 18.2336 31.0452 18.6448C31.5035 19.0559 31.7327 19.6266 31.7327 20.3566C31.7327 21.2629 31.3952 21.9636 30.7201 22.4587H32.3203Z" stroke="url(#paint2_linear)" stroke-width="2" mask="url(#path-6-outside-1)"/>
<path d="M39.9171 22.4587V23H32.3165V22.4587H35.1417V15.9007H32.6665V14.2014H39.5671V15.9007H37.0919V22.4587H39.9171Z" stroke="url(#paint3_linear)" stroke-width="2" mask="url(#path-6-outside-1)"/>
<path d="M40.9972 22.4587V14.2014H47.2978V15.951H42.9474V17.7636H46.8602V19.4378H42.9474V21.2629H47.4353V22.4587H48.6479V23H39.7846V22.4587H40.9972Z" stroke="url(#paint4_linear)" stroke-width="2" mask="url(#path-6-outside-1)"/>
<path d="M49.1766 22.4587V14.2014H51.0018L55.2897 19.8657V14.2014H57.2398V22.4587H58.4525V23H55.2897L51.1268 17.4867V23H47.964V22.4587H49.1766Z" stroke="url(#paint5_linear)" stroke-width="2" mask="url(#path-6-outside-1)"/>
<path d="M59.3948 22.4587V14.2014H65.6954V15.951H61.345V17.7636H65.2578V19.4378H61.345V21.2629H65.8329V22.4587H67.0455V23H58.1822V22.4587H59.3948Z" stroke="url(#paint6_linear)" stroke-width="2" mask="url(#path-6-outside-1)"/>
<path d="M67.5743 22.4587V14.2014H70.8871C72.2455 14.2014 73.2123 14.4322 73.7873 14.8937C74.3707 15.3552 74.6624 16.0979 74.6624 17.1217C74.6624 18.5315 74.1082 19.442 72.9997 19.8531L74.8249 22.4587H76V23H72.8122L70.8745 20.193H69.5244V23H66.3617V22.4587H67.5743ZM70.9496 18.4937C71.6163 18.4937 72.0705 18.3846 72.3122 18.1664C72.5539 17.9483 72.6747 17.6042 72.6747 17.1343C72.6747 16.6559 72.5497 16.3287 72.2997 16.1524C72.0497 15.9762 71.6121 15.8881 70.9871 15.8881H69.5244V18.4937H70.9496Z" stroke="url(#paint7_linear)" stroke-width="2" mask="url(#path-6-outside-1)"/>
<defs>
<linearGradient id="paint0_linear" x1="13" y1="18.5" x2="76" y2="18.5" gradientUnits="userSpaceOnUse">
<stop stop-color="#E94057"/>
<stop offset="1" stop-color="#F27121"/>
</linearGradient>
<linearGradient id="paint1_linear" x1="13" y1="18.5" x2="76" y2="18.5" gradientUnits="userSpaceOnUse">
<stop stop-color="#E94057"/>
<stop offset="1" stop-color="#F27121"/>
</linearGradient>
<linearGradient id="paint2_linear" x1="13" y1="18.5" x2="76" y2="18.5" gradientUnits="userSpaceOnUse">
<stop stop-color="#E94057"/>
<stop offset="1" stop-color="#F27121"/>
</linearGradient>
<linearGradient id="paint3_linear" x1="13" y1="18.5" x2="76" y2="18.5" gradientUnits="userSpaceOnUse">
<stop stop-color="#E94057"/>
<stop offset="1" stop-color="#F27121"/>
</linearGradient>
<linearGradient id="paint4_linear" x1="13" y1="18.5" x2="76" y2="18.5" gradientUnits="userSpaceOnUse">
<stop stop-color="#E94057"/>
<stop offset="1" stop-color="#F27121"/>
</linearGradient>
<linearGradient id="paint5_linear" x1="13" y1="18.5" x2="76" y2="18.5" gradientUnits="userSpaceOnUse">
<stop stop-color="#E94057"/>
<stop offset="1" stop-color="#F27121"/>
</linearGradient>
<linearGradient id="paint6_linear" x1="13" y1="18.5" x2="76" y2="18.5" gradientUnits="userSpaceOnUse">
<stop stop-color="#E94057"/>
<stop offset="1" stop-color="#F27121"/>
</linearGradient>
<linearGradient id="paint7_linear" x1="13" y1="18.5" x2="76" y2="18.5" gradientUnits="userSpaceOnUse">
<stop stop-color="#E94057"/>
<stop offset="1" stop-color="#F27121"/>
</linearGradient>
</defs>
</svg>
