<svg width="45" height="75" viewBox="0 0 45 75" fill="none" xmlns="http://www.w3.org/2000/svg">
<path d="M22.4137 59.763C26.6379 59.763 30.5172 58.07 33.2758 55.3612C36.0344 52.6524 37.7585 48.8431 37.7585 44.6953V15.0677C37.7585 10.9199 36.0344 7.11061 33.2758 4.40181C30.5172 1.693 26.6379 0 22.4137 0C18.1896 0 14.3103 1.693 11.5517 4.40181C8.79305 7.11061 7.06891 10.9199 7.06891 15.0677V44.6953C7.06891 48.8431 8.79305 52.6524 11.5517 55.3612C14.3103 58.07 18.1896 59.763 22.4137 59.763ZM11.5517 15.0677C11.5517 12.105 12.7586 9.48081 14.7413 7.53386C16.7241 5.58691 19.3965 4.40181 22.4137 4.40181C25.431 4.40181 28.1034 5.58691 30.0861 7.53386C32.0689 9.48081 33.2758 12.105 33.2758 15.0677V44.6953C33.2758 47.658 32.0689 50.2822 30.0861 52.2291C28.1034 54.1761 25.431 55.3612 22.4137 55.3612C19.3965 55.3612 16.7241 54.1761 14.7413 52.2291C12.7586 50.2822 11.5517 47.658 11.5517 44.6953V15.0677Z" fill="url(#paint0_linear)"/>
<path d="M42.7586 35.1298C41.5517 35.1298 40.5172 36.1456 40.5172 37.3307V44.9492C40.5172 49.8589 38.5345 54.2607 35.2586 57.4775C31.9828 60.6942 27.5 62.6411 22.5 62.6411C17.5 62.6411 13.0172 60.6942 9.74138 57.4775C6.46552 54.2607 4.48276 49.8589 4.48276 44.9492V37.3307C4.48276 36.1456 3.44827 35.1298 2.24138 35.1298C1.03448 35.1298 0 36.1456 0 37.3307V44.9492C0 51.044 2.5 56.631 6.63793 60.6095C10.0862 64.1648 14.8276 66.4504 20.1724 66.9583V70.5982H14.3103C13.1034 70.5982 12.069 71.614 12.069 72.7991C12.069 73.9842 13.1034 75 14.3103 75H22.4138H30.5172C31.7241 75 32.7586 73.9842 32.7586 72.7991C32.7586 71.614 31.7241 70.5982 30.5172 70.5982H24.6552V66.9583C30 66.4504 34.7414 64.0802 38.3621 60.6095C42.4138 56.631 45 51.044 45 44.9492V37.3307C45 36.1456 43.9655 35.1298 42.7586 35.1298Z" fill="url(#paint1_linear)"/>
<defs>
<linearGradient id="paint0_linear" x1="7.06891" y1="29.8815" x2="37.7585" y2="29.8815" gradientUnits="userSpaceOnUse">
<stop stop-color="#E94057"/>
<stop offset="1" stop-color="#F27121"/>
</linearGradient>
<linearGradient id="paint1_linear" x1="1.67638e-07" y1="55.0649" x2="45" y2="55.0649" gradientUnits="userSpaceOnUse">
<stop stop-color="#E94057"/>
<stop offset="1" stop-color="#F27121"/>
</linearGradient>
</defs>
</svg>
