<svg width="70" height="60" viewBox="0 0 70 60" fill="none" xmlns="http://www.w3.org/2000/svg">
<path d="M66.2116 3.69748C63.8868 1.42857 60.615 0 57.0849 0H12.9151C9.38499 0 6.11316 1.42857 3.78844 3.69748C1.46371 5.96639 0 9.15967 0 12.605V47.479C0 50.9244 1.46371 54.1177 3.78844 56.3866C6.19926 58.5714 9.38499 60 12.9151 60H57.0849C60.615 60 63.8868 58.5714 66.2116 56.3025C68.5363 54.0336 70 50.8403 70 47.395V12.605C70 9.15967 68.5363 5.96639 66.2116 3.69748ZM65.6088 47.479C65.6088 49.7479 64.6618 51.7647 63.1119 53.2773C61.5621 54.7899 59.4957 55.7143 57.171 55.7143H12.9151C10.5904 55.7143 8.52398 54.7899 6.97417 53.2773C5.42435 51.7647 4.47724 49.7479 4.47724 47.479V12.605H4.56335C4.56335 10.3361 5.51045 8.31933 7.06027 6.80672C8.61009 5.29412 10.6765 4.36975 13.0012 4.36975H57.171C59.4957 4.36975 61.5621 5.29412 63.1119 6.80672C64.6618 8.31933 65.6088 10.3361 65.6088 12.605V47.479Z" fill="url(#paint0_linear)"/>
<path d="M19.5449 34.5379C19.2005 34.2017 18.8561 33.9496 18.4256 33.7816V11.1765C18.4256 10 17.3924 8.99164 16.187 8.99164C14.9815 8.99164 13.9483 10 13.9483 11.1765V33.7816C13.5178 34.0337 13.1734 34.2858 12.829 34.5379C11.968 35.3782 11.4514 36.5547 11.4514 37.8152C11.4514 39.0757 11.968 40.2521 12.829 41.0925C13.1734 41.4286 13.5178 41.6807 13.9483 41.8488V48.7395C13.9483 49.916 14.9815 50.9244 16.187 50.9244C17.3924 50.9244 18.4256 49.916 18.4256 48.7395V41.8488C18.8561 41.5967 19.2005 41.3446 19.5449 41.0925C20.4059 40.2521 20.9225 39.0757 20.9225 37.8152C20.9225 36.5547 20.4059 35.4622 19.631 34.6219L19.5449 34.5379Z" fill="url(#paint1_linear)"/>
<path d="M32.1156 20.9244C31.7712 20.5883 31.4268 20.3362 30.9963 20.1681V11.1765C30.9963 10 29.9631 8.99164 28.7577 8.99164C27.5523 8.99164 26.5191 10 26.5191 11.1765V20.1681C26.0886 20.4202 25.7442 20.6723 25.3998 20.9244C24.5388 21.7647 24.0222 22.9412 24.0222 24.2017C24.0222 25.4622 24.5388 26.6387 25.3998 27.479C25.7442 27.8152 26.0886 28.0673 26.5191 28.2353V48.8236C26.5191 50 27.5523 51.0084 28.7577 51.0084C29.9631 51.0084 30.9963 50 30.9963 48.8236V28.2353C31.4268 27.9832 31.7712 27.7311 32.1156 27.479C32.9767 26.6387 33.4933 25.4622 33.4933 24.2017C33.4933 22.9412 32.9767 21.8488 32.2017 21.0084L32.1156 20.9244Z" fill="url(#paint2_linear)"/>
<path d="M44.6002 34.5378C44.3419 34.2857 43.9975 34.0336 43.567 33.7815V11.0924C43.567 9.91594 42.5338 8.90753 41.3284 8.90753C40.1229 8.90753 39.0897 9.91594 39.0897 11.0924V33.6134C38.6592 33.8655 38.2287 34.1176 37.8843 34.4538C37.0233 35.2941 36.5067 36.4706 36.5067 37.7311C36.4206 39.0756 37.0233 40.2521 37.8843 41.0924C38.2287 41.4286 38.6592 41.6807 39.0897 41.9328V48.8235C39.0897 50 40.1229 51.0084 41.3284 51.0084C42.5338 51.0084 43.567 50 43.567 48.8235V41.8487C43.9114 41.6807 44.2558 41.4286 44.6002 41.0924C45.4612 40.2521 45.9778 39.0756 45.9778 37.8151C45.9778 36.5546 45.4612 35.4622 44.6863 34.6218L44.6002 34.5378Z" fill="url(#paint3_linear)"/>
<path d="M57.171 20.9244C56.9127 20.6723 56.5683 20.4202 56.1378 20.1681V11.1765C56.1378 10 55.1046 8.99164 53.8992 8.99164C52.6938 8.99164 51.6606 10 51.6606 11.1765V20.0841C51.23 20.3362 50.7995 20.5883 50.4551 20.9244C49.5941 21.7647 49.0775 22.9412 49.0775 24.2017C48.9914 25.4622 49.5941 26.6387 50.4551 27.479C50.7995 27.8152 51.23 28.0673 51.6606 28.3194V48.8236C51.6606 50 52.6938 51.0084 53.8992 51.0084C55.1046 51.0084 56.1378 50 56.1378 48.8236V28.2353C56.4822 28.0673 56.8266 27.8152 57.171 27.479C58.032 26.6387 58.5486 25.4622 58.5486 24.2017C58.5486 22.9412 58.032 21.8488 57.2571 21.0084L57.171 20.9244Z" fill="url(#paint4_linear)"/>
<defs>
<linearGradient id="paint0_linear" x1="2.6077e-07" y1="30" x2="70" y2="30" gradientUnits="userSpaceOnUse">
<stop stop-color="#E94057"/>
<stop offset="1" stop-color="#F27121"/>
</linearGradient>
<linearGradient id="paint1_linear" x1="11.4514" y1="29.958" x2="20.9225" y2="29.958" gradientUnits="userSpaceOnUse">
<stop stop-color="#E94057"/>
<stop offset="1" stop-color="#F27121"/>
</linearGradient>
<linearGradient id="paint2_linear" x1="24.0222" y1="30" x2="33.4933" y2="30" gradientUnits="userSpaceOnUse">
<stop stop-color="#E94057"/>
<stop offset="1" stop-color="#F27121"/>
</linearGradient>
<linearGradient id="paint3_linear" x1="36.4985" y1="29.958" x2="45.9778" y2="29.958" gradientUnits="userSpaceOnUse">
<stop stop-color="#E94057"/>
<stop offset="1" stop-color="#F27121"/>
</linearGradient>
<linearGradient id="paint4_linear" x1="49.0693" y1="30" x2="58.5486" y2="30" gradientUnits="userSpaceOnUse">
<stop stop-color="#E94057"/>
<stop offset="1" stop-color="#F27121"/>
</linearGradient>
</defs>
</svg>
