<svg width="214" height="79" viewBox="0 0 214 79" fill="none" xmlns="http://www.w3.org/2000/svg">
<g filter="url(#filter0_d)">
<path d="M42.6442 58.7462C42.4817 58.7727 42.3187 58.7971 42.155 58.8194C42.3187 58.7971 42.4817 58.7727 42.6442 58.7462Z" fill="black"/>
<path d="M43.0343 58.6796C42.9566 58.6938 42.8789 58.7069 42.8013 58.7203C42.8789 58.7069 42.9566 58.6938 43.0343 58.6796Z" fill="black"/>
<path d="M41.7194 58.8735C41.5293 58.895 41.3379 58.914 41.146 58.9301C41.3379 58.914 41.5293 58.895 41.7194 58.8735Z" fill="black"/>
<path d="M42.094 58.8278C42.0027 58.84 41.9107 58.8513 41.8191 58.862C41.9107 58.8513 42.0027 58.84 42.094 58.8278Z" fill="black"/>
<path d="M43.5651 58.5742C43.4966 58.5888 43.4279 58.6034 43.3592 58.6174C43.4279 58.6034 43.4966 58.5888 43.5651 58.5742Z" fill="black"/>
<path d="M44.8826 58.2469C44.8273 58.2627 44.7719 58.2776 44.7166 58.2931C44.7719 58.2776 44.8273 58.2627 44.8826 58.2469Z" fill="black"/>
<path d="M44.4842 58.3558C44.4241 58.3716 44.3637 58.3877 44.3033 58.4029C44.3637 58.3877 44.4241 58.3719 44.4842 58.3558Z" fill="black"/>
<path d="M43.9629 58.4861C43.8992 58.501 43.8349 58.5149 43.7707 58.5292C43.8349 58.5149 43.8992 58.501 43.9629 58.4861Z" fill="black"/>
<path d="M41.1398 58.9307C41.0371 58.9393 40.9345 58.947 40.8315 58.9539C40.9345 58.947 41.0371 58.9393 41.1398 58.9307Z" fill="black"/>
<path d="M59 39.5C59 28.7321 50.2679 20 39.5 20C28.7321 20 20 28.7321 20 39.5C20 50.2679 28.7321 59 39.5 59C39.6146 59 39.7285 58.9976 39.8428 58.9955V43.8156H35.6533V38.9332H39.8428V35.3403C39.8428 31.1735 42.3865 28.9056 46.1034 28.9056C47.8834 28.9056 49.4134 29.0383 49.8594 29.0975V33.4524H47.2963C45.2742 33.4524 44.8826 34.4134 44.8826 35.8235V38.9332H49.7177L49.0875 43.8156H44.8826V58.2466C53.0333 55.91 59 48.4008 59 39.5Z" fill="#999999"/>
<path d="M40.7884 58.9565C40.5854 58.9696 40.3816 58.98 40.1772 58.9869C40.3816 58.98 40.5854 58.9696 40.7884 58.9565Z" fill="black"/>
<path d="M40.1668 58.9875C40.0591 58.9911 39.9511 58.9938 39.8431 58.9956C39.9511 58.9938 40.0591 58.9911 40.1668 58.9875Z" fill="black"/>
</g>
<g filter="url(#filter1_d)">
<path d="M105.071 43.1533L111.414 39.5001L105.071 35.8468V43.1533Z" fill="#999999"/>
<path d="M107.5 20C96.7321 20 88 28.7321 88 39.5C88 50.2679 96.7321 59 107.5 59C118.268 59 127 50.2679 127 39.5C127 28.7321 118.268 20 107.5 20ZM119.685 39.5199C119.685 39.5199 119.685 43.4746 119.183 45.3816C118.902 46.4254 118.079 47.2484 117.035 47.5293C115.128 48.0312 107.5 48.0312 107.5 48.0312C107.5 48.0312 99.892 48.0312 97.9651 47.5094C96.9213 47.2285 96.0983 46.4052 95.8171 45.3614C95.3152 43.4746 95.3152 39.5 95.3152 39.5C95.3152 39.5 95.3152 35.5456 95.8171 33.6386C96.098 32.5948 96.9413 31.7516 97.9651 31.4707C99.8721 30.9688 107.5 30.9688 107.5 30.9688C107.5 30.9688 115.128 30.9688 117.035 31.4906C118.079 31.7715 118.902 32.5948 119.183 33.6386C119.705 35.5456 119.685 39.5199 119.685 39.5199Z" fill="#999999"/>
</g>
<g filter="url(#filter2_d)">
<path d="M178.232 39.5C178.232 41.5614 176.561 43.2324 174.5 43.2324C172.439 43.2324 170.768 41.5614 170.768 39.5C170.768 37.4386 172.439 35.7676 174.5 35.7676C176.561 35.7676 178.232 37.4386 178.232 39.5Z" fill="#999999"/>
<path d="M183.229 32.8963C183.049 32.4101 182.763 31.97 182.391 31.6088C182.03 31.2369 181.59 30.9506 181.104 30.7712C180.709 30.618 180.116 30.4356 179.025 30.3859C177.844 30.332 177.49 30.3204 174.5 30.3204C171.51 30.3204 171.156 30.3317 169.975 30.3856C168.884 30.4356 168.291 30.618 167.896 30.7712C167.41 30.9506 166.97 31.2369 166.609 31.6088C166.237 31.97 165.951 32.4098 165.771 32.8963C165.618 33.2908 165.435 33.8839 165.386 34.9755C165.332 36.1562 165.32 36.5103 165.32 39.5003C165.32 42.4901 165.332 42.8442 165.386 44.0251C165.435 45.1168 165.618 45.7095 165.771 46.1041C165.951 46.5906 166.237 47.0303 166.608 47.3916C166.97 47.7635 167.409 48.0497 167.896 48.2292C168.291 48.3827 168.884 48.5651 169.975 48.6148C171.156 48.6686 171.51 48.6799 174.5 48.6799C177.49 48.6799 177.844 48.6686 179.024 48.6148C180.116 48.5651 180.709 48.3827 181.104 48.2292C182.08 47.8525 182.852 47.0806 183.229 46.1041C183.382 45.7095 183.564 45.1168 183.614 44.0251C183.668 42.8442 183.68 42.4901 183.68 39.5003C183.68 36.5103 183.668 36.1562 183.614 34.9755C183.565 33.8839 183.382 33.2908 183.229 32.8963ZM174.5 45.2498C171.324 45.2498 168.75 42.6758 168.75 39.5C168.75 36.3243 171.324 33.7503 174.5 33.7503C177.675 33.7503 180.25 36.3243 180.25 39.5C180.25 42.6758 177.675 45.2498 174.5 45.2498ZM180.477 34.8666C179.735 34.8666 179.133 34.265 179.133 33.5229C179.133 32.7808 179.735 32.1792 180.477 32.1792C181.219 32.1792 181.821 32.7808 181.821 33.5229C181.821 34.265 181.219 34.8666 180.477 34.8666Z" fill="#999999"/>
<path d="M174.5 20C163.732 20 155 28.7321 155 39.5C155 50.2679 163.732 59 174.5 59C185.268 59 194 50.2679 194 39.5C194 28.7321 185.268 20 174.5 20ZM185.63 44.1164C185.576 45.3084 185.386 46.1222 185.109 46.8345C184.528 48.3386 183.339 49.5276 181.835 50.1093C181.122 50.386 180.308 50.5753 179.117 50.6297C177.923 50.6842 177.541 50.6973 174.5 50.6973C171.459 50.6973 171.078 50.6842 169.884 50.6297C168.692 50.5753 167.878 50.386 167.166 50.1093C166.418 49.8281 165.742 49.3875 165.182 48.8177C164.613 48.2586 164.172 47.5817 163.891 46.8345C163.614 46.1225 163.425 45.3084 163.371 44.1167C163.316 42.9224 163.303 42.5409 163.303 39.5C163.303 36.4591 163.316 36.0776 163.37 34.8836C163.424 33.6916 163.614 32.8778 163.89 32.1655C164.172 31.4183 164.613 30.7414 165.182 30.1823C165.741 29.6125 166.418 29.1719 167.165 28.8907C167.878 28.614 168.692 28.4247 169.884 28.3703C171.078 28.3158 171.459 28.3027 174.5 28.3027C177.541 28.3027 177.922 28.3158 179.116 28.3706C180.308 28.4247 181.122 28.614 181.835 28.8904C182.582 29.1716 183.259 29.6125 183.818 30.1823C184.387 30.7417 184.828 31.4183 185.109 32.1655C185.386 32.8778 185.576 33.6916 185.63 34.8836C185.684 36.0776 185.697 36.4591 185.697 39.5C185.697 42.5409 185.684 42.9224 185.63 44.1164Z" fill="#999999"/>
</g>
<defs>
<filter id="filter0_d" x="0" y="0" width="79" height="79" filterUnits="userSpaceOnUse" color-interpolation-filters="sRGB">
<feFlood flood-opacity="0" result="BackgroundImageFix"/>
<feColorMatrix in="SourceAlpha" type="matrix" values="0 0 0 0 0 0 0 0 0 0 0 0 0 0 0 0 0 0 127 0"/>
<feOffset/>
<feGaussianBlur stdDeviation="10"/>
<feColorMatrix type="matrix" values="0 0 0 0 1 0 0 0 0 1 0 0 0 0 1 0 0 0 0.25 0"/>
<feBlend mode="normal" in2="BackgroundImageFix" result="effect1_dropShadow"/>
<feBlend mode="normal" in="SourceGraphic" in2="effect1_dropShadow" result="shape"/>
</filter>
<filter id="filter1_d" x="68" y="0" width="79" height="79" filterUnits="userSpaceOnUse" color-interpolation-filters="sRGB">
<feFlood flood-opacity="0" result="BackgroundImageFix"/>
<feColorMatrix in="SourceAlpha" type="matrix" values="0 0 0 0 0 0 0 0 0 0 0 0 0 0 0 0 0 0 127 0"/>
<feOffset/>
<feGaussianBlur stdDeviation="10"/>
<feColorMatrix type="matrix" values="0 0 0 0 1 0 0 0 0 1 0 0 0 0 1 0 0 0 0.25 0"/>
<feBlend mode="normal" in2="BackgroundImageFix" result="effect1_dropShadow"/>
<feBlend mode="normal" in="SourceGraphic" in2="effect1_dropShadow" result="shape"/>
</filter>
<filter id="filter2_d" x="135" y="0" width="79" height="79" filterUnits="userSpaceOnUse" color-interpolation-filters="sRGB">
<feFlood flood-opacity="0" result="BackgroundImageFix"/>
<feColorMatrix in="SourceAlpha" type="matrix" values="0 0 0 0 0 0 0 0 0 0 0 0 0 0 0 0 0 0 127 0"/>
<feOffset/>
<feGaussianBlur stdDeviation="10"/>
<feColorMatrix type="matrix" values="0 0 0 0 1 0 0 0 0 1 0 0 0 0 1 0 0 0 0.25 0"/>
<feBlend mode="normal" in2="BackgroundImageFix" result="effect1_dropShadow"/>
<feBlend mode="normal" in="SourceGraphic" in2="effect1_dropShadow" result="shape"/>
</filter>
</defs>
</svg>
