<svg width="274" height="235" viewBox="0 0 274 235" fill="none" xmlns="http://www.w3.org/2000/svg">
<rect x="156.699" y="148.815" width="153.767" height="11.6899" rx="5.84493" transform="rotate(157.696 156.699 148.815)" fill="url(#paint0_linear)" fill-opacity="0.5"/>
<rect x="206.699" y="173.815" width="153.767" height="11.6899" rx="5.84493" transform="rotate(157.696 206.699 173.815)" fill="url(#paint1_linear)" fill-opacity="0.5"/>
<rect x="159.513" y="176.004" width="153.767" height="20.2866" rx="10.1433" transform="rotate(157.696 159.513 176.004)" fill="url(#paint2_linear)" fill-opacity="0.5"/>
<path d="M69.5 80.9862C-49 139.986 64 230.486 138.843 211.986C197.279 211.986 274 189.722 274 145.486C274 101.25 256.936 9.98621 198.5 9.98621C140.064 9.98621 138.843 48.9862 69.5 80.9862Z" fill="url(#paint3_linear)" fill-opacity="0.5"/>
<path d="M51.5009 71C-66.9991 130 46.0009 220.5 120.844 202C179.28 202 256.001 179.736 256.001 135.5C256.001 91.2639 238.937 0 180.501 0C122.065 0 120.844 39 51.5009 71Z" fill="url(#paint4_linear)" fill-opacity="0.5"/>
<defs>
<linearGradient id="paint0_linear" x1="156.699" y1="154.66" x2="310.466" y2="154.66" gradientUnits="userSpaceOnUse">
<stop stop-color="#E94057"/>
<stop offset="1" stop-color="#F27121"/>
</linearGradient>
<linearGradient id="paint1_linear" x1="206.699" y1="179.66" x2="360.465" y2="179.66" gradientUnits="userSpaceOnUse">
<stop stop-color="#E94057"/>
<stop offset="1" stop-color="#F27121"/>
</linearGradient>
<linearGradient id="paint2_linear" x1="159.513" y1="186.147" x2="313.28" y2="186.147" gradientUnits="userSpaceOnUse">
<stop stop-color="#E94057"/>
<stop offset="1" stop-color="#F27121"/>
</linearGradient>
<linearGradient id="paint3_linear" x1="221.889" y1="112.433" x2="10.2731" y2="112.433" gradientUnits="userSpaceOnUse">
<stop stop-color="#E94057"/>
<stop offset="1" stop-color="#F27121"/>
</linearGradient>
<linearGradient id="paint4_linear" x1="203.89" y1="102.447" x2="-7.72603" y2="102.447" gradientUnits="userSpaceOnUse">
<stop stop-color="#F27121"/>
<stop offset="1" stop-color="#E94057"/>
</linearGradient>
</defs>
</svg>
